<?xml version="1.0" encoding="UTF-8"?>
<svg id="Layer_1" xmlns="http://www.w3.org/2000/svg" version="1.1" viewBox="0 0 960 1280">
  <!-- Generator: Adobe Illustrator 29.1.0, SVG Export Plug-In . SVG Version: 2.1.0 Build 142)  -->
  <defs>
    <style>
      .st0 {
        fill: #d3b269;
      }

      .st1 {
        fill: #fcfaf5;
      }

      .st2 {
        fill: #cfaa5b;
      }

      .st3 {
        fill: #ceaa59;
      }

      .st4 {
        fill: #cfab5c;
      }

      .st5 {
        fill: #fefefd;
      }

      .st6 {
        fill: #fcfaf6;
      }

      .st7 {
        fill: #d0ac5f;
      }

      .st8 {
        fill: #fefdfb;
      }

      .st9 {
        fill: #fdfbf7;
      }
    </style>
  </defs>
  <path class="st6" d="M618.3,216.9c35.3,11.5,68.3,27.1,99.5,46.7,33.4,21,63.4,46.2,90.2,75.1,29,31.4,53.3,66,72.1,104.4,16.8,34.1,29.3,69.8,37,107.1,4.3,20.7,7.1,41.6,8.1,62.7.3,6.7,1.4,13.5,1.2,20.2-.5,16.2-1.4,32.4-2.5,48.5-.8,10.9-1.7,21.9-3.6,32.7-2.4,13.8-5.2,27.5-8.8,41-3.1,11.7-7.2,23-11.2,34.5-2.9,8.3-5.6,16.8-9.3,24.8-6.9,14.9-13.9,29.7-21.7,44.1-5.8,10.7-12.7,20.7-19.4,30.8-4.5,6.8-9.1,13.5-14.1,19.9-7.4,9.3-14.9,18.5-23,27.3-10,10.9-20.4,21.6-31.1,31.8-7.8,7.4-16.4,13.9-24.7,20.8-5.7,4.7-11.1,9.6-17.1,13.8-7.9,5.6-16.2,10.6-24.4,15.7-4.7,2.9-9.4,5.9-14.3,8.5-11.7,6.1-23.3,12.3-35.2,17.9-10.6,5-21.4,9.9-32.5,13.7-15.5,5.4-31.2,10.1-47,14.3-12.1,3.2-24.4,5.6-36.7,7.6-9.7,1.6-19.6,2.3-29.5,3.1-11.7.9-23.3,1.9-35,1.8-14.1,0-28.1-.7-42.1-1.9-14.3-1.2-28.7-2.7-42.9-5.2-14.6-2.6-29-6-43.2-10.2-15.4-4.5-30.6-9.9-45.5-15.8-11.8-4.7-23.4-10.4-34.6-16.5-15.2-8.2-30.3-16.7-44.7-26.2-12.2-8-23.8-17.1-34.9-26.6-14.3-12.3-28.4-24.8-41.4-38.4-34.4-36.2-62-77.2-82.2-123-20.8-47.2-33.4-96.4-37.1-148-3.5-47.9.6-95,12.1-141.7,13.5-54.6,36.9-104.5,69.4-150.2,17.5-24.6,37.4-47.2,59.6-67.7,28.5-26.3,59.8-48.7,94.1-67,37.6-20,77.1-34.4,118.7-43,35.5-7.4,71.5-10.5,107.7-8.7,28.3,1.4,56.6,4.2,84.2,11.3,12,3.1,23.8,6.6,36,10.1M56.3,529.4c-1.6,6.1-3.6,12.2-4.7,18.5-2.5,14.1-4.6,28.2-6.7,42.3-1.8,11.7-3.1,23.4-3.1,35.2,0,24.1.6,48.2,3.8,72.2,3.3,24.8,8.5,49.2,15.9,73.1,9.9,31.9,23.2,62.2,40.1,91.1,27,46.3,61.2,86.4,102.8,120.1,33.2,26.8,69.4,48.5,109,64.5,47.8,19.4,97.3,30.7,149,32.4,47.4,1.6,94.1-3.3,139.7-16.6,30.4-8.9,59.7-20.7,87.6-35.9,33-17.9,63.4-39.5,90.7-65.2,26.3-24.8,49.3-52.3,68.9-82.8,18.7-29.2,33.9-60,45.2-92.8,11.5-33.1,19-67,22.6-101.9,4.1-39.4,2.4-78.4-4-117.3-5.3-32.1-14.5-63-26.8-93.1-12.4-30.6-28.3-59.3-47.2-86.2-12.4-17.7-25.8-34.6-41.1-49.9-15.3-15.3-30.3-30.9-48.1-43.5-11-7.8-21.8-15.7-33.1-22.9-11.4-7.3-22.9-14.5-34.9-20.7-11.2-5.9-22.9-11-34.8-15.5-16.4-6.2-33.1-11.7-49.7-17.2-6.5-2.1-13.1-3.6-19.8-5.2-7.3-1.7-14.7-3.4-22.1-4.5-8-1.3-16.1-2-24.2-2.9-8.7-1-17.4-2.2-26.2-3-4.6-.4-9.2.2-13.9,0-22.2-.6-44.3.2-66.4,3-8.3,1-16.7,2.3-24.9,4.2-14.3,3.2-28.5,6.7-42.7,10.5-9.5,2.6-18.9,5.7-28.2,9.1-9.6,3.5-19,7.3-28.3,11.3-7.8,3.3-15.6,6.7-22.9,10.8-13.2,7.4-26.2,15.1-38.9,23.3-11.7,7.6-23,15.8-34.1,24.3-7.8,6-15.2,12.7-22.3,19.5-10.4,9.9-20.6,19.9-30.4,30.4-7,7.5-13.2,15.7-19.6,23.8-4,5-7.9,10.2-11.5,15.6-5.2,7.8-10.1,15.9-14.9,23.9-5.5,9.2-11.4,18.3-16.2,28-6,12.2-11.1,24.9-16.6,37.4-7.4,16.8-12.8,34.2-17.3,52.5Z"/>
  <path class="st2" d="M56.4,529.1c4.4-18.1,9.8-35.5,17.2-52.3,5.5-12.5,10.6-25.2,16.6-37.4,4.8-9.6,10.6-18.7,16.2-28,4.8-8.1,9.8-16.1,14.9-23.9,3.5-5.4,7.5-10.5,11.5-15.6,6.4-8,12.6-16.3,19.6-23.8,9.8-10.5,20-20.5,30.4-30.4,7.1-6.8,14.5-13.5,22.3-19.5,11.1-8.5,22.4-16.7,34.1-24.3,12.6-8.2,25.7-15.9,38.9-23.3,7.3-4.1,15.2-7.5,22.9-10.8,9.4-4,18.8-7.9,28.3-11.3,9.3-3.4,18.7-6.5,28.2-9.1,14.1-3.8,28.4-7.3,42.7-10.5,8.2-1.8,16.5-3.1,24.9-4.2,22-2.8,44.2-3.6,66.4-3,4.6.1,9.3-.4,13.9,0,8.7.7,17.4,1.9,26.2,3,8.1.9,16.2,1.6,24.2,2.9,7.4,1.2,14.8,2.9,22.1,4.5,6.6,1.5,13.3,3,19.8,5.2,16.7,5.5,33.3,11,49.7,17.2,11.9,4.5,23.5,9.7,34.8,15.5,12,6.3,23.5,13.4,34.9,20.7,11.3,7.3,22.1,15.2,33.1,22.9,17.8,12.6,32.8,28.2,48.1,43.5,15.3,15.3,28.7,32.2,41.1,49.9,18.9,27,34.8,55.6,47.2,86.2,12.2,30.1,21.5,61.1,26.8,93.1,6.4,38.9,8.1,77.9,4,117.3-3.6,34.9-11.1,68.8-22.6,101.9-11.3,32.7-26.5,63.6-45.2,92.8-19.5,30.5-42.6,58-68.9,82.8-27.3,25.8-57.7,47.3-90.7,65.2-27.9,15.2-57.1,27-87.6,35.9-45.6,13.4-92.3,18.2-139.7,16.6-51.7-1.7-101.2-13.1-149-32.4-39.5-16-75.8-37.7-109-64.5-41.7-33.6-75.8-73.8-102.8-120.1-16.8-28.8-30.2-59.2-40.1-91.1-7.4-23.9-12.6-48.2-15.9-73.1-3.2-24-3.7-48-3.8-72.2,0-11.9,1.3-23.6,3.1-35.2,2.2-14.1,4.2-28.3,6.7-42.3,1.1-6.2,3.1-12.3,4.8-18.8M732.6,869c4.8-5.7,9.8-11.1,14.2-17,5.9-7.8,11.6-15.7,16.9-23.9,6.8-10.6,13.7-21.2,19.5-32.3,5.5-10.5,9.8-21.7,14.6-32.7,7.8-17.9,12.8-36.6,16.7-55.7,2.1-10.6,3-21.5,4.2-32.2,1-9.3,2.3-18.6,2.5-27.9.5-36.3-4.5-71.9-15.2-106.7-8.3-27.1-20-52.8-34.8-77-17.2-28.1-38.1-53.1-62.6-75.3-26.1-23.6-55-42.7-86.9-57.4-30.7-14.1-62.8-23.3-96.2-27.6-25.2-3.3-50.5-4.1-75.9-1.6-29.8,2.9-58.8,9.1-86.8,19.6-42.9,16-81.1,39.7-114.5,71.1-22.5,21.1-42.1,44.7-58.2,71.1-13.8,22.6-24.9,46.5-33.1,71.6-8.4,25.6-13.2,52-15.6,78.9-2.2,24.1-1.1,47.9,1.9,71.8,3,24,8.8,47.4,17.1,70.1,11.9,32.4,27.8,62.8,49.3,89.8,9.4,11.8,18.9,23.5,29.5,34.1,11.5,11.4,24.2,21.7,36.9,31.9,7.7,6.2,16.2,11.5,24.5,16.8,7.6,4.8,15.2,9.5,23.2,13.5,10.6,5.3,21.3,10.2,32.3,14.7,9.7,3.9,19.6,7.2,29.6,10.2,7.5,2.3,15.3,3.8,23,5.6,6.2,1.4,12.3,3,18.5,3.9,8.1,1.2,16.2,1.9,24.4,2.6,9.1.8,18.1,1.8,27.2,1.9,8.2.1,16.4-.6,24.6-1.2,7.6-.5,15.1-.9,22.6-2,9.1-1.3,18.1-3,27-5.2,12.1-2.9,24.3-5.6,35.9-9.8,13.7-4.9,27.2-10.5,40.1-17,15-7.6,29.8-16,43.9-25.2,10.6-6.9,20.2-15.4,30.2-23.3,2.6-2.1,5.2-4.3,7.6-6.6,7.2-7.1,14.3-14.2,21.8-21.7M455.7,219.7c-.7.6-1.4,1.1-2.1,1.7.5.5.9,1.3,1.5,1.5,4.1,1,4.1,3.7,3.1,7-4.4,14.6-8.7,29.2-13,43.8-.9,3-2.6,5-5.7,5.9-1.5.5-3,1.3-4.9,2.2,3.8,2,25.5,1.3,27.3-.6-.6-.4-1.2-.9-1.8-1.2-5.1-2.3-5.6-3.2-4-8.6,1.4-5,3-10,4.4-15.1.6-2.3,1.9-3.2,4.3-3.2,8.1,0,16.2-.1,24.4-.1.9,0,1.8.3,3.3.5-2.4,7.4-4.3,14.5-7,21.3-.8,2-3.8,3.2-5.9,4.6-1.2.8-2.6,1.3-4.5,2.1,3.9,1.9,24.5,1.2,26.3-.8-1-.5-2-1.1-3-1.5-2.3-.9-3-2.6-2.3-4.8,4.6-15.6,9.1-31.2,14.1-46.6.6-2,3.3-3.4,5.2-4.8,1.2-.9,2.6-1.3,4-2-.1-.4-.2-.9-.3-1.3-8.4.1-16.8-.5-25.5.6.4,1.1.5,1.4.6,1.6.4.3.7.7,1.2.9,4.9,2.5,5.2,3.1,3.7,8.4-1.4,4.9-3,9.8-4.4,14.7-.6,2.3-1.9,3.2-4.3,3.2-8,0-16,.1-24,.1-1,0-2.1-.3-3.6-.5,1.8-6.1,3.6-11.7,5-17.3,1.2-4.4,3.6-7.2,8.2-8.2,1.2-.3,2.3-1.2,3.4-1.8l-.4-1.4c-7.5,0-15.1,0-23.2,0M71.2,561.5c-.3,3.1-.6,6.2-.9,9.3.4.1.8.2,1.2.3.6-.5,1.3-.9,1.8-1.5,3-4.4,3.7-4.6,8.5-2.5,4.8,2.1,9.7,4.1,14.3,6.5,1.2.6,2.4,2.6,2.3,3.9-.7,8.2-1.8,16.4-2.7,24.6-.3,2.6-1.3,3.2-3.7,2.1-4.8-2.2-9.6-4.3-14.4-6.3-3.8-1.6-6-4.3-6.5-8.4-.2-1.4-.8-2.7-1.3-4.1-.5,0-1,.2-1.5.2l-2.9,25.1c1.7,0,2.3-.2,2.7-.6,3.6-4.4,3.6-4.5,8.7-2.3,13.4,5.9,26.7,11.9,40.1,17.7,3.4,1.5,5.5,3.6,5.9,7.4.1,1.3.9,2.6,1.4,3.9.5,0,.9,0,1.4-.1,1-8.7,2-17.5,3-26.2-.4-.2-.9-.3-1.3-.5-.7.8-1.4,1.5-1.9,2.3-2.6,4.2-3.6,4.6-8.2,2.6-4.8-2-9.6-4.3-14.4-6.2-2.5-1-3.4-2.4-3.1-5.1.9-6.9,1.6-13.9,2.5-20.8.2-1.9.6-3.8,1-6.5,6.3,2.8,12,5.5,17.8,8,3.9,1.7,6.2,4.4,6.7,8.7.1,1.3.9,2.4,1.3,3.7.4,0,.9-.2,1.3-.2.9-8.4,1.9-16.8,2.8-25.1-.5-.1-.9-.3-1.4-.4-.6.7-1.4,1.3-1.7,2.2-1.4,3-3.5,3.2-6.2,2.1-14.3-6.3-28.6-12.6-42.9-18.9-3-1.3-4.7-3.5-5.2-6.8-.2-1.3-.9-2.6-1.3-3.9-.5,0-1,0-1.5,0-.6,5.1-1.1,10.1-1.7,15.8M856.2,488.5c3.1-.2,6.4-1.1,9.2-.3,2.7.7,4.9,3.3,7.3,5,.3-.3.6-.7,1-1-3.7-7.5-7.4-15-11.2-22.5-.4.1-.8.2-1.3.4-.2.8-.6,1.5-.6,2.3-.1,5.3-.5,5.8-5.8,6.7-5.1.8-10.2,1.4-15.2,2.3-2.6.5-3.9-.4-5-2.7-2.7-5.8-5.5-11.5-8.3-17.2-1.1-2.3-2.2-4.7-3.5-7.6,6.9-1.1,13-2,19.1-3,3.9-.6,7.1.5,9.7,3.6.9,1.1,2.2,1.9,3.8,3.2-.1-4.7-9.2-22.6-11.6-23.7-.2.7-.8,1.4-.6,2,.8,4-1.4,5.3-4.9,5.9-15,2.2-29.9,4.5-44.8,6.8-3.6.6-6.3-.3-8.7-3.1-.9-1.1-2.3-1.8-3.4-2.6-.3.3-.7.6-1,.9,3.9,7.9,7.7,15.8,11.6,23.7.5-.1.9-.3,1.4-.4,0-.9.3-1.8.3-2.8-.1-4.8.7-5.9,5.4-6.7,3.2-.6,6.4-1,9.6-1.5q9.7-1.5,14,7.3c3,6.2,6,12.3,9,18.6-.8.4-1.2.8-1.6.9-6,.9-12.1,1.8-18.2,2.7-3.9.6-7.1-.6-9.7-3.7-.9-1-2.1-1.8-3.5-3-.1,4,9.3,22.5,11.5,23.5.2-.3.5-.6.5-.9q.7-6.2,7.2-7.2c12.5-1.9,24.9-3.9,38.1-5.9M674.1,317.7c-1.5,1.5-3.2,2.8-4.6,4.4-3.6,3.9-7.7,5.8-13.1,3.9-.9-.3-1.9,0-2.9,0-.1.4-.2.9-.3,1.3,7.4,4.1,14.7,8.2,22.1,12.3.3-.4.6-.8.9-1.1-.4-.8-.7-1.8-1.3-2.4-2.1-2.2-1.7-4.3.3-6.2,11.4-10.8,22.8-21.7,34.3-32.5,2.4-2.2,5.1-2.9,8.3-2.1,1.3.3,2.7.2,4.8.3-.9-1.3-1.1-1.9-1.5-2.2-6.3-3.6-12.6-7.1-19-10.6-.6-.3-1.6,0-2.4,0,.2.9.1,2,.7,2.6,2.8,3,2.1,5.6-.6,8.1-4,3.7-8.1,7.5-12,11.3-1.8,1.7-3.3,1.6-5.3.5-6.9-4-13.9-7.9-20.8-11.8-.9-.5-1.7-1.3-2.8-2.1,4.8-4.6,9.3-8.7,13.6-13,2.9-2.9,6.2-3.9,10.3-2.7,1.3.4,2.8.2,4.2.3.1-.5.3-1,.4-1.5-7.6-3.7-14.5-8.8-23.2-12.6.4,1.9.3,2.5.6,3,2.8,4.9,2.8,4.9-1.3,8.9-10.7,10.1-21.4,20.2-32.1,30.4-2.5,2.4-5.1,3.3-8.5,2.3-1.4-.4-3-.3-4.9-.5,2.1,3.3,21.4,13.8,24,13.3-.3-.7-.4-1.4-.8-2-3.4-4.9-3.4-5.6.8-9.7,3.7-3.6,7.5-7,11.1-10.6,1.8-1.9,3.4-2,5.6-.7,6.9,4,13.9,7.9,20.9,11.8.9.5,1.7,1.2,2.9,2.1-2.8,2.6-5.2,4.9-8.1,7.6M256.6,355.4c-.2,2.3-.4,4.6-.7,6.9.2.2.4.5.6.7,6.9-6.2,14.9-11.2,22-18-1.3-.6-1.6-.9-1.9-.9-.6,0-1.3.1-1.8.4-6,2.7-12,2-17.9,0-6.3-2-12.5-4.4-18.7-6.5-2.5-.8-3.2-2.4-2.7-4.9,1.1-5.9,2-11.8,3-17.7,1.4-8.5,3.9-16.5,10-23.1.8-.8.9-2.2,1.4-3.3-.4-.3-.8-.6-1.2-.9-6.5,5.6-13,11.1-19.6,16.7.2.4.5.8.7,1.1.8,0,1.7.4,2.4.1,2.8-.8,3.8.4,3.4,3-1.5,9.6-3.1,19.2-4.8,28.8-.3,1.6-1.6,3-2.6,4.9-.9-1-1.4-1.3-1.6-1.7-2.6-6.1-5.4-12.1-7.5-18.4-.6-1.9.4-4.5,1.1-6.6.5-1.5,1.5-2.8,2.3-4.2-.4-.3-.8-.6-1.2-1-6.7,5.2-13.5,10.4-19.5,16.8,1.3.6,2.3.8,3.1.5,3.8-1.7,5.8-.2,7.3,3.3,5.5,13.7,11.1,27.3,16.7,41,1.6,3.8,1.4,7.2-1.3,10.5-.8,1-1.2,2.4-1.7,3.6.4.3.7.5,1.1.8,6.9-5.7,13.9-11.4,20.8-17.1-.1-.3-.3-.6-.4-1-.8,0-1.6-.3-2.3-.2-5.5,1.1-6.3.8-8.6-4.3-2.2-5-4.4-10.1-6.5-15.1-.5-1.2-.4-2.5-.6-3.8,1.4,0,3-.3,4.2.1,7.6,2.8,15.1,5.9,23.2,9.2M256.8,971.4c2.6-1.7,5.4-3.2,7.8-5.1,12.1-10.2,13.8-24.8,4.2-36.9-1.8-2.3-4.1-4.4-6.4-6.3-5.6-4.6-11.2-9.1-16.9-13.5-1.4-1.1-3.2-1.6-4.7-2.3.5,1.6.7,3.4,1.6,4.8,2.3,3.8,2.4,5.3-.6,7.3-12.8,8.5-25.7,16.9-38.5,25.3-3.3,2.1-6.5,2.2-9.8,0-1.1-.7-2.5-.8-3.7-1.2-.2.4-.4.7-.6,1.1.7.7,1.3,1.6,2.1,2.2,7.1,5.9,14.1,11.9,21.3,17.7,13.2,10.6,27.7,13.8,44.3,7M395.1,1012.1c-4.8,7.1-9.1,14.6-15,21.1-1-1.7-1.4-3.1-1.6-4.5-2.2-14.6-4.3-29.2-6.6-43.7-.3-1.6-1.3-3.9-2.6-4.5-4.4-1.9-9.2-3.3-13.8-4.7-.7-.2-1.5.3-3.3.6,1.7,1.3,2.6,2.3,3.7,2.9,5.9,3.3,6.6,5.4,2.8,10.9-8,11.5-16.2,22.8-24.2,34.3-2.3,3.3-5.5,5-9.5,5-1.3,0-2.7.4-4,.7,0,.5,0,.9-.1,1.4,7.7,2.2,15.2,5,23.3,6.1-.3-1.2-.8-1.9-1.4-2.4-5.3-4.3-5.7-5.5-2.1-11.1,6.3-9.9,12.8-19.7,19.2-29.5.8-1.2,1.4-2.5,2.2-3.8.6.3,1.3.7,1.9,1,.6,2.9,1.3,5.7,1.7,8.6,1.7,13.4,3.4,26.8,5.1,40.2.9,6.9,6.5,10.4,14.1,8.6-.7-1.4-1.3-2.7-2-3.9-1.3-2.6-1.6-5.3.1-7.8,8.4-12,16.7-24,25.1-35.9,2-2.9,4.8-4.1,8.4-3.7,1.3.2,2.7-.3,4.1-.4,0-.5.1-1,.2-1.5-8.3-2.3-16.6-4.7-24.8-7-.2.5-.4,1-.7,1.5,1.1.9,2.1,1.9,3.2,2.6,4.6,3,5.2,5.1,2.6,10-1.7,3.1-3.6,6-5.8,9.4M739.6,975.8c5-4.8,10-9.6,14.9-14.4-.3-.3-.5-.7-.8-1-.8.1-1.6.2-2.4.4-6.6,2.4-7.7,2.1-10.8-4.2-5.2-10.3-10.2-20.6-15.3-30.9-.7-1.3-.9-2.9-1.8-5.5,3.7,1.2,6.3,1.9,8.7,2.9,12.6,5.4,25.2,10.9,37.8,16.3,6.4,2.7,12.3-.3,14.5-7.5-.8-.2-1.7-.5-2.5-.4-4.9.4-8-1.9-9.7-6.5-.9-2.3-2.1-4.5-3.1-6.8-4.4-9.8-8.8-19.6-13.2-29.4-1.7-3.8-2.2-7.4.8-10.8.8-.9,1-2.3,1.4-3.4-.4-.3-.8-.6-1.2-.9l-18.7,17.8c.3.4.6.9.9,1.3,1.1-.4,2.2-.6,3.3-1.1,5.9-2.9,8.1-2.4,11.1,3.4,4.9,9.5,9.6,19.2,14.3,28.9.5,1.1.6,2.4,1,4.4-2.1-.7-3.4-1.1-4.7-1.6-10.8-4.4-21.5-8.9-32.3-13.1-15.7-6.2-10.1-7-23.2,3.8-.8.6-1.5,1.3-2.1,2.1-.4.6-.5,1.4-1,3.2,2.2-.9,3.5-1.3,4.7-2,5.2-3.1,7.6-2.6,10.1,2.8,6,13.1,11.8,26.2,17.6,39.3,1.5,3.4,1.3,6.8-.6,10-.7,1.2-1.1,2.6-1.6,3.9.3.2.5.5.8.7.9-.5,1.7-.9,3-1.8M186.2,402.4c-6.1-8.2-12.1-16.5-18.2-24.7-2.8-3.7-4.4-7.5-1.8-12.1.5-.9.4-2.2.5-3.3-.4-.2-.9-.4-1.3-.6l-14.6,21.5c.3.3.7.7,1,1,.9-.4,1.9-.7,2.7-1.3,6.2-4.7,7.7-4.7,12.6,1.3,6.5,7.9,12.8,16,19.1,24,.9,1.1,1.5,2.4,2.6,4.5-2.4-.2-4-.2-5.5-.5-14.4-2.5-28.8-5.2-43.2-7.6-1.8-.3-4.6,0-5.7,1.2-3.2,3.3-5.7,7.2-8.4,11-.5.7-.4,1.7-.9,3.7,1.9-1.1,2.9-1.5,3.6-2.1,6.2-5.2,7.8-5.1,12.7,1.5,7.9,10.8,15.7,21.6,23.6,32.4,2.5,3.4,3.2,6.9,1.9,10.9-.4,1.3-.4,2.7-.5,4,.4.2.9.4,1.3.5l13.6-19.5c-.3-.3-.7-.7-1-1-.8.4-1.7.7-2.4,1.1-5.5,3.6-6.7,3.5-10.9-1.6-7.4-9.1-14.6-18.4-21.9-27.6-.9-1.1-1.4-2.5-2-3.7.2-.4.4-.8.5-1.2,4,.6,8,1,11.9,1.7,12.4,2.4,24.7,5.1,37.1,7.4,2.2.4,5.5.3,6.9-1,2.4-2.2,3.8-5.6,6.2-9.4-2.3.1-3.4,0-4.5.3-4,.9-7.1-.2-9.4-3.6-1.6-2.4-3.5-4.6-5.5-7.3M603.6,1041.1c3.6,0,7.3.6,10.7-.2,26.1-6.5,34.9-40.8,19.8-60.5-5.2-6.8-12.3-9.8-20.8-7.7-7.6,1.9-14,5.6-19,11.9-6.5,8.2-9.5,17.7-8.9,27.9.8,12.4,4.7,23.3,18.2,28.6M885.6,599.3c-8.3-7.1-17.9-10.9-28.8-10.8-18.8.3-28.6,14.1-23.1,32.1,5.9,19.1,28.7,31.6,47.9,26.3,10.4-2.9,16.2-9.8,16.5-20.5.3-10.8-4.3-19.5-12.5-27.1M887.1,540.7c-6.5-23.1-37.3-33.4-57.2-21.3-8.6,5.2-11.8,13.8-9.3,23.6,5.2,20.6,28.1,32.9,49.8,26.8,11.7-3.3,21.5-13.2,16.7-29M345.4,268.7c-.3,6.5.8,12.7,3.4,18.6,5.1,11.5,15.9,16.1,27.8,12.2,9.7-3.2,16.5-9.7,20.9-18.7,6.2-12.8,6.5-25.8-.7-38.4-4.3-7.4-10.9-11.4-19.7-10.4-8,.9-14.9,4.4-20.6,10.4-6.8,7.2-10.1,15.9-11.2,26.3M630.6,248.7c-.5-.3-1.1-.6-1.6-1-12.1-11.2-37.5-11.1-52.1,2.4-9.1,8.5-14.2,22.6-10.8,32.4,5.1,14.8,24.5,21.3,38.8,17.6,1.1-.3,2.2-2.2,2.4-3.5.9-5.9,7.8-12.7,13.8-13.3,1.1,0,2.1-.7,3.4-1.1-2.6-2.6-23.2-8.7-26-7.5,2,1.4,3.6,2.6,5.3,3.7,2.2,1.4,2.7,3.1,1.2,5.3-1.9,2.9-3.7,6-5.8,8.8-3.8,5.1-8.9,6.1-14.6,3.2-8-4.2-12.1-13.4-9.4-22.3,3.2-10.7,9.7-19.2,19-25.2,6-3.9,12.7-5.9,20-4.3,8,1.7,11.5,7.5,9,15.3-.2.6-.6,1.2-.5,1.8,0,1,.4,2,.5,3,.9-.4,2.1-.7,2.7-1.4,3.3-3.5,6.6-7.2,9.8-10.8.4-.4.6-1,1.3-2-2.3-.3-4.2-.6-6.6-1.1M309.1,1009.9c-1.9.8-3.8,2.1-5.8,2.4-3.6.5-7.5,1.1-10.9.2-4.2-1.2-8.1-3.9-11.9-6.1-3.2-1.9-3.6-3.9-1.2-6.8,2.4-3,5.2-5.8,7.9-8.5,8.9-8.9,5.8-9.5,18.8-2.1,2.4,1.3,3,3.1,2.1,5.7-.5,1.3-.6,2.6-.9,3.9.3.2.7.3,1,.5,4.5-4.2,8.9-8.4,13.4-12.7-.2-.3-.4-.7-.6-1-1.3.3-2.8.4-4,.9-3.2,1.4-6.3,1.3-9.3-.5-2.1-1.2-4.2-2.3-6.3-3.2-3-1.4-2.9-2.9-.7-5,2.4-2.2,4.6-4.6,6.9-6.8,10.4-10.2,7.6-9.7,20.9-2.6,4.3,2.3,4.7,4,2.9,8.6-.5,1.3-.8,2.7-1.1,4.1.4.2.9.5,1.3.7,2.9-3.1,5.9-6.2,8.6-9.5.2-.3-.8-2.4-1.7-2.9-10.9-5.8-21.9-11.5-32.8-17.2-1.4-.7-2.9-1-4.4-1.5-.2.3-.3.7-.5,1,.4.7.8,1.5,1.3,2.1,4.2,4.6,4.2,4.8-.3,9.3-9.8,9.8-19.7,19.5-29.4,29.4-3.5,3.6-7.2,5.1-12.1,3.5-1.3-.4-2.8-.2-4.2-.3-.2.5-.4.9-.5,1.4.6.4,1.3.8,1.9,1.1,13.1,7,26.1,14.1,39.3,21.1,3.9,2.1,13.1-4.1,13.2-8.7,0,0-.2-.2-.8-.4M701.3,954.4c-1.1-5.4-2.3-10.7-3.4-16.1-.7-3.1,0-5.9,2.2-8.4.8-1,1.3-2.2,1.9-3.4-.4-.3-.7-.6-1.1-.9l-18.2,11.8c.2.4.4.9.6,1.3.9,0,1.9.2,2.8,0,3.8-.8,6.4.9,7.3,4.2,3.2,12.4,6.9,24.8,8.8,37.5,1.3,8.9-2.5,16.7-11.4,20.8-6.5,3-12.9.7-16.1-5.7-.8-1.5-1.4-3.2-1.9-4.9-2.6-9.4-5.1-18.8-7.6-28.2-1.2-4.4-1.3-8.6,2.1-12.3.5-.6.6-1.5.8-2.2-.3-.3-.6-.6-.8-1-6.7,4.2-13.4,8.3-20.8,12.9,1.5.9,1.9,1.3,2.3,1.4,6.1.8,6.3.9,7.9,6.7.5,1.8,1,3.6,1.5,5.4,2.3,8.3,4.3,16.7,7,24.9,3.1,9.4,11.1,13.7,19.9,11.4,13.4-3.4,22.3-14.8,21.1-28.5-.7-8.8-3-17.4-4.6-26.8M133.2,504.2c1.6,1.4,3.2,2.8,4.9,4.1,4.5,3.3,6.4,7.5,4.9,13-.3,1.1,0,2.2,0,3.4.4.1.8.2,1.2.3.6-1,1.4-1.8,1.8-2.9,5.6-12.8,11.1-25.7,16.6-38.5,2.2-5.2-3.4-13.5-10-13.8,1.1,2,1.9,3.7,2.9,5.3,2.4,4,3.2,8.2,1.6,12.6-1.5,4-3.2,7.9-5,11.7-1.7,3.5-3.6,4-6.9,1.7-3.1-2.1-6-4.5-8.9-6.9-10-8.3-9.8-5.1-3.9-18.5,1.2-2.6,3-3.5,5.7-2.7,1.2.3,2.6.3,3.9.5,0-.3.2-.7.3-1-4.6-4.1-9.2-8.1-13.8-12.2-.3.3-.7.5-1,.8.4,1.1.6,2.3,1.2,3.2,2.1,3.6,2,7.1.2,10.7-.9,1.9-1.7,3.9-2.4,5.9-1,2.9-2.5,3-4.7,1.1-4.4-3.9-8.9-7.7-13.4-11.4-2.9-2.4-3.4-5-1.8-8.3,1.1-2.4,2.1-4.8,3.1-7.2,2.1-4.7,3.6-5.3,8.5-3.9,1.4.4,2.8.5,4.2.7l.5-1.3c-3.4-2.6-6.7-5.3-10.3-7.7-.3-.2-2.3,1-2.7,1.9-4.8,11.4-9.6,22.8-14.2,34.2-.6,1.4-.8,3-1.2,4.5l1,.4c.7-.5,1.4-.8,2-1.4,4.2-4.6,4.5-4.7,9.2-.7,8.7,7.3,17.4,14.7,26.5,22.3M287.5,281.4c-1.7-5.8.7-10.5,4.9-14.7-.5-.3-.9-.6-1.4-1-7.1,3.6-14.2,7.1-21.3,10.7,1,1.4,1.5,1.9,2.1,1.8,4.7-.3,6,2.6,6.6,6.5.4,3,1,5.9,1.5,8.9,1.4,7.9,2.4,15.8,4.3,23.6,2.1,8.8,9,13.8,17.3,12.9,9.5-1,22.6-7.6,24.6-22.1.9-6.5.4-13.2,0-19.7-.7-8.7-2.1-17.3-3.2-26-.6-4.2,0-7.9,3.5-10.8.7-.6,1.1-1.7,1.6-2.5-.3-.3-.6-.7-.9-1-6.5,3.3-12.9,6.7-19.4,10,.9,1.3,1.4,1.6,1.8,1.6,6.8.7,7.8,1.2,9.1,7.9,1.8,9.7,3.4,19.4,4.5,29.2.4,3.7-.1,7.8-1,11.5-1.6,6.9-5.8,11.8-12.7,14.1-6.6,2.2-12.7-.5-15.3-6.9-.9-2.2-1.4-4.5-1.8-6.9-1.5-8.7-2.9-17.5-4.5-26.9M179.7,916.8c3.9-1,7.8-1.7,11.5-3.1,9.9-3.8,19.7-7.8,29.6-11.8,3.7-1.5,7.2-1.7,10.7.7.9.6,2,.7,3.1,1,.3-.4.6-.9.9-1.3-5.4-4.9-9.3-11.2-15.8-15.7,3.3,8-1.6,11.1-7.2,13.6-8.1,3.6-16.2,7.3-24.4,10.6-5.8,2.4-11.9,3-18,1.6-6.5-1.5-12.6-7.8-13.4-13.8-.7-5.6,2.5-10.4,9.6-13.7,9.2-4.3,18.4-8.4,27.7-12.5,3.7-1.7,7.4-2,11.1.2.8.5,1.9.5,3.2.8-1.5-4.4-13.8-17.8-16.5-18.2,0,.6-.3,1.3,0,1.8,1.4,4-.6,6.2-4,7.6-1.5.7-3,1.3-4.4,2-8.7,4.1-17.6,7.7-26.1,12.3-9.2,4.9-11.5,14.4-6.4,23.4,5.9,10.7,15.9,15.9,28.8,14.4M771.1,857.2c0,3.7-.6,7.5-.1,11.2,1.7,13.7,8.6,24.1,21,30.4,12.2,6.2,27.8-.8,33.2-14.2,1-2.4,2.4-5,4.3-6.6,1.7-1.5,2.2-2.6,1.2-4.3-2-3.5-4-6.9-6.1-10.3-.6-.9-1.9-1.4-2.9-2-.3.2-.6.5-.8.7.3,1.3.6,2.5,1,3.8.7,2.8,1.7,5.5,2.1,8.3.9,7.1-2,12.7-7.7,16.8-5.5,3.9-11.4,3.3-17,0-9-5.1-15.6-12.7-19-22.4-1.9-5.4-2.2-11.4-2.8-17.2-.2-2.1.8-4.4,1.7-6.4,3.6-8.1,11.2-10,18.4-5,1.1.8,2.6.8,4,1.2-.4-1.3-.5-2.8-1.1-3.9-1.9-3.5-4-6.9-6-10.4-.6-1-1.2-1.9-1.6-2.6-2.7,3-4.8,6.1-7.6,8.3-7.8,6.2-12.4,14.2-14.1,24.6M521.9,1010.7c-5.6,10.2-7,20.9-2.9,31.8,4.9,13.1,20.5,18.6,33.9,12.8,2.5-1.1,5.4-.9,8.1-1.5,1-.2,2.4-.8,2.6-1.5,1.3-4.5,2.4-9.1,3.4-13.8.1-.6-.6-1.4-1.3-3.1-2.1,3.8-3.6,6.8-5.4,9.8-4,6.5-11,9.7-18.3,8.4-7.3-1.3-11.7-6.2-12.7-13.1-.9-6.4-1.2-13.3-.2-19.6,1.6-9.9,6.1-18.6,14.8-24.2,9.6-6.2,17.9-2.7,20.4,8.3.2,1,1.2,1.9,1.9,2.9.6-.9,1.6-1.8,1.9-2.8,1.3-4.4,2.4-8.9,3.6-13.4.2-.7,0-1.6,0-2.1-3.1.4-6.1,1.5-8.8,1.1-18-2.5-31,5-40.9,20M760.6,389.3c-9.3,12-7.6,26.6,4.1,36.2,1.5,1.3,3.9,2.6,4.1,4.1.8,5,3.8,4.4,7.1,3.6,2.8-.7,5.6-1.3,8.3-2.1,1.2-.4,2.1-1.3,3.2-2l-.2-1c-1.3-.1-2.5-.3-3.8-.4-3.1-.2-6.3,0-9.3-.7-6.9-1.4-11.2-6-13.2-12.5-1.9-6.4.4-11.9,5.2-16.2,9.5-8.5,20.8-12.4,33.5-11.2,4.9.5,10,2.3,14.4,4.7,4.8,2.5,7.3,7.1,6.5,12.9-.5,4-3.3,6.3-6.3,8.4-.7.5-1,1.8-1.4,2.7,1,.2,2.1.6,3,.4,4.6-.9,9.3-2,13.9-3,.8-.2,1.5-.6,2.7-1.1-1.7-1.5-3.3-2.5-4.3-3.9-1.1-1.6-1.6-3.6-2.3-5.5-10-26.2-44.9-33.6-65.1-13.3M479.3,999.5c-13.1-.9-26.2-1.6-39.2-2.7-2-.2-4.1-1.1-5.8-2.2-1.9-1.2-3.1-1.3-4.3.7-2.1,3.6-4.2,7.1-6.2,10.7-.5.9-.5,1.9-.8,2.9.3.3.7.5,1,.8,1.4-1.2,3-2.2,4.3-3.6,4.4-4.8,9.7-6.6,16.2-5.7,5,.7,5.6,1.3,3.8,6.2-5.1,13.8-10.4,27.6-15.6,41.4-1.6,4.1-4.4,6.5-8.8,7.2-1.4.2-2.8.9-4.2,1.4l.2,1.4c9.4.7,18.8,1.3,28.1,2,0-.4.2-.8.2-1.2-.4-.4-.7-.9-1.2-1.2-6.1-3.9-6.2-4-3.7-10.6,4.5-12,9-24.1,13.6-36.1,3.6-9.4,3.6-9.4,13.6-8.2,4.9.6,6.2,2,6.6,6.9.1,1.6.5,3.2.7,4.7.5,0,.9,0,1.4.1,2.4-5.3,4.8-10.7,7.6-17-3.2,1-5.1,1.7-7.7,2.4M67.5,669.6c3.3,4.7,5.9,10,9.9,13.9,9.7,9.5,21.7,13.1,35.1,10,13.5-3.1,21.3-18.3,16.9-31.9-.8-2.6-1.5-5.6-1.1-8.2.3-2.3,0-3.3-1.9-4-3.6-1.4-7.2-2.7-10.9-3.9-1.1-.4-2.5,0-3.7,0-.1.4-.2.7-.3,1.1,1.1.9,2.2,1.7,3.4,2.6,2.6,1.9,5.5,3.6,7.7,5.9,4.8,4.9,5.6,11.1,3.7,17.4-1.9,6.3-6.8,9.4-13,10.4-12.2,2.1-23.3-.9-33.4-7.7-4.5-3.1-8.1-7-10.4-12-4.3-9.6.1-17.2,10.5-18.3,1.3-.1,2.4-.9,3.7-1.3,0-.4,0-.8-.1-1.2-6-2.2-12-4.4-17.6-6.4-.2,4,0,7.7-.6,11.2-1.5,7.6-.9,14.9,2.2,22.6M133.3,763.4c7.1,0,11.9,3.4,12.9,9.4.8,5.1-1.8,9.3-7.4,12.1-1.5.8-3,1.7-4.4,2.5.2.3.3.6.5.9h17.4c-.8-4.8-1.4-8.9-2.1-12.9-.8-5.3-2.9-10-6.7-13.9-8.6-9-21.5-7.7-28,2.9-1.9,3.2-3.3,6.7-5.1,10-1.4,2.6-2.9,5.4-4.9,7.4-3.4,3.4-7.9,4.4-12.5,2.6-5.5-2.2-8.1-6.9-8.5-12.6-.3-4.9,2.6-7.9,6.6-10,1.4-.8,3-1.3,4.4-2.1.5-.3.8-1.1,1.2-1.7-.7-.4-1.4-1.3-2-1.2-5,.1-10,.3-14.9.7-2,.2-2.7,1.3-1.7,3.4,1,2.3,1.6,4.7,2.3,7.1,1.4,4.9,2.2,10,4.4,14.5,3.4,7,9.5,10.8,17.5,10.7,8.1-.1,13.1-4.7,16.4-11.7,1.7-3.6,3.2-7.3,5-10.9,1.9-3.7,4.8-6.4,9.7-7.3M174.3,825.3c-2.8-4.7-5.8-9.4-8.3-14.2-1.2-2.3-1.8-5.1-2.2-7.7-.3-2.1-1.2-2.9-3.1-2.7-4.1.3-8.2.6-12.3,1-1,0-1.9.7-2.8,1.1,0,.4,0,.8,0,1.2,1.6.5,3.1,1.2,4.7,1.4,7.5.8,12.2,5,15.5,11.5,1.2,2.4.7,3.7-1.7,4.6-1.3.5-2.6.9-3.9,1.2-13.4,3.4-26.9,6.7-40.3,10.2-4.7,1.2-8.6.3-11.9-3.3-.9-.9-2.1-1.5-3.7-2.6.6,4.4,13,24.1,15.2,24.8.1-.5.3-.9.3-1.4-.5-7.2-.2-7.6,6.7-9.4,12.5-3.2,24.9-6.3,37.4-9.5,9.5-2.4,9.5-2.3,14.3,6.4,2.3,4.3,1.9,6.3-1.7,9.5-1.2,1.1-2.4,2.2-3.6,3.3.2.4.4.8.6,1.3,5.7-1.1,11.4-2.2,16.8-3.2-3.2-4.2-6.2-7.9-8.9-11.8-2.5-3.6-4.5-7.5-7.1-11.7M750.7,369.4c.2-3.7.5-7.4.6-11.2.1-3.7-.3-7.5.2-11.2.9-6.4,6.3-10.5,12.5-9.9,4.3.4,7.6,2.5,9.4,6.5,2,4.5.5,8.5-2.2,12.3-1,1.4-2,2.8-2.9,4.2.4.4.7.7,1.1,1.1,5.3-2.9,10.6-5.9,15.4-8.6-2.5-3.3-4.6-6.3-7-9.1-2.3-2.8-4.5-5.8-7.4-7.8-6-4.2-12.9-5.8-19.8-2.3-7,3.4-9.8,9.7-9.7,17.3,0,3.4.2,6.7.2,10.1,0,2.2-.1,4.6-.8,6.7-1.5,4.8-4.9,7.8-9.9,8.5-5,.7-11.1-2.5-13.6-7.1-2.3-4.4-1.4-8.5,1.3-12.3,1-1.3,2.1-2.5,3-3.9.4-.6.2-1.5.2-2.3-.7,0-1.6-.3-2.1,0-4.5,2.4-9,4.9-13.3,7.5-1.8,1.1-1.7,2.4.2,3.8,1.9,1.4,3.4,3.3,5.1,5,3.7,4,6.9,8.8,11.3,11.8,10.6,7.3,23.8,3,28.4-9.1M858.8,784.4c-9.4-7.2-18.8-14.5-28.4-21.5-3.8-2.8-5.3-6.1-4.3-10.7.3-1.5,0-3.1,0-4.7-.6-.1-1.1-.2-1.7-.3-2.5,8.8-6.7,17-9.6,26.7,1.8-.5,2.3-.6,2.7-.8,5.2-4.1,5.2-4.1,10.3,0,10.6,8.2,21.1,16.5,31.8,24.5,4.2,3.1,6,6.8,5.3,11.9-.2,1.4.2,2.9.3,4.4.4,0,.8.1,1.2.2.6-1.1,1.3-2.2,1.7-3.4,4-10.6,7.9-21.3,12-31.9,4.6-12.1,4.5-12.9-6.2-20.4-1-.7-2.3-1-3.4-1.5l-.9.9c1,1.6,1.9,3.3,3.1,4.8,3.9,5.2,5,10.8,3,17-.9,2.7-1.8,5.5-2.9,8.1-1.4,3.4-3.3,4.1-6.5,2.2-2.5-1.4-4.7-3.2-7.5-5.2M829.4,699.4c4.6,4.6,12.5,8.1,15.9,6.6-1.6-1.5-2.9-2.9-4.4-4.1-5-4-7.1-9.2-6.8-15.5.1-2.2.4-4.5.6-6.7.7-6.1,2.4-7.1,8.2-5.1.8.3,1.6.6,2.4,1,12.3,5.3,24.5,10.8,36.8,16,4.4,1.8,6.5,4.8,6.7,9.4,0,1.6.6,3.1,1,5.3,2.6-3.3,5.1-26.1,3.5-28.5-.5.4-1.1.6-1.4,1.1q-3.6,5.1-9.1,2.6c-12.6-5.6-25.1-11.3-37.7-16.7-4.7-2-7.2-5.1-7.7-10.1-.2-1.4-.8-2.8-1.2-4.2-.4,0-.8,0-1.2.1-.3,1.4-.8,2.7-.9,4.1-1,8.4-1.9,16.9-2.9,25.3-.7,6.3-1.4,12.6-1.8,19.4M549.7,244.4c1.1-2.3,2.3-4.5,3.2-6.8,1.8-4.5,4.8-7.1,9.9-7.2,1.2,0,2.3-.7,3.9-1.3-4-2.5-25-5.3-27.2-3.8.3.5.6,1.1,1,1.4,5.1,3.9,5.2,4,2.4,9.9-5.9,12.4-12,24.7-17.9,37.1-2,4.3-5.1,6.6-9.8,6.8-1.3,0-2.5.7-3.7,1.1,0,.4.1.9.2,1.3,9.2,1.4,18.5,2.7,27.7,4.1.1-.4.2-.8.4-1.2-.4-.4-.7-1-1.1-1.3-5.9-4.1-6.1-4.6-2.9-11,4.6-9.6,9.2-19.1,14.1-29.2M142.5,536.1c-.2-.8-.5-1.5-.7-2.3-.6.3-1.4.5-1.8,1-4.8,5-5.1,5.1-11.1,1.2-11.3-7.3-22.6-14.8-34-22-3.8-2.4-5.8-5.3-5.4-9.8.1-1.4-.4-2.8-.8-4.9-3,4-8.4,24.2-7.5,26.6.3,0,.7,0,1-.1.4-.2.8-.6,1.1-1,3.7-4,4.3-4.1,8.7-1.3,11.9,7.7,23.6,15.4,35.6,23,4,2.5,6,5.8,5.6,10.6,0,1.3.3,2.6.5,4,.4,0,.9,0,1.3.1,2.4-8.1,4.9-16.3,7.4-25M818.6,819.3c7.1,7,14.1,14.1,21.3,21.1,3.3,3.2,4.6,6.7,3.3,11.1-.4,1.3-.3,2.8-.4,4.1l1.4.5c4.3-8.3,8.7-16.6,13-24.9-.3-.2-.6-.5-1-.7-.6.1-1.2.2-1.7.5q-6.4,4.3-11.9-1.2c-9.5-9.4-18.9-18.9-28.5-28.2-3.1-3-4.3-6.3-3.1-10.4.4-1.4.2-2.9.3-5-4.1,3.3-13.3,22.2-12.4,24.8.8-.4,1.6-.7,2.2-1.2,3.8-2.9,4.6-2.9,8.2.5,3,2.8,5.9,5.8,9.2,9Z"/>
  <path class="st6" d="M732.4,869.1c-7.3,7.3-14.4,14.5-21.6,21.5-2.4,2.3-4.9,4.6-7.6,6.6-10,7.9-19.5,16.4-30.2,23.3-14.2,9.1-28.9,17.5-43.9,25.2-12.9,6.5-26.4,12.2-40.1,17-11.7,4.1-23.9,6.9-35.9,9.8-8.9,2.1-17.9,3.8-27,5.2-7.5,1.1-15.1,1.5-22.6,2-8.2.6-16.4,1.3-24.6,1.2-9.1-.2-18.1-1.1-27.2-1.9-8.1-.7-16.3-1.4-24.4-2.6-6.2-.9-12.4-2.5-18.5-3.9-7.7-1.8-15.5-3.3-23-5.6-10-3-19.9-6.3-29.6-10.2-11-4.4-21.7-9.4-32.3-14.7-8-4-15.7-8.7-23.2-13.5-8.4-5.3-16.8-10.6-24.5-16.8-12.7-10.2-25.4-20.5-36.9-31.9-10.7-10.5-20.2-22.3-29.5-34.1-21.6-27.1-37.4-57.4-49.3-89.8-8.4-22.7-14.1-46.1-17.1-70.1-3-23.9-4.1-47.7-1.9-71.8,2.5-26.9,7.2-53.2,15.6-78.9,8.2-25.2,19.3-49,33.1-71.6,16.1-26.4,35.7-50,58.2-71.1,33.4-31.4,71.6-55.1,114.5-71.1,28-10.5,57-16.7,86.8-19.6,25.4-2.5,50.7-1.7,75.9,1.6,33.4,4.4,65.5,13.6,96.2,27.6,31.9,14.6,60.9,33.8,86.9,57.4,24.4,22.1,45.3,47.2,62.6,75.3,14.8,24.2,26.5,49.8,34.8,77,10.7,34.8,15.6,70.4,15.2,106.7-.1,9.3-1.4,18.6-2.5,27.9-1.2,10.8-2,21.6-4.2,32.2-3.8,19-8.8,37.8-16.7,55.7-4.8,10.9-9.1,22.1-14.6,32.7-5.8,11.1-12.7,21.7-19.5,32.3-5.3,8.2-11,16.1-16.9,23.9-4.5,5.9-9.5,11.4-14.4,17.2M806.3,567.8c-1.2-5-2.3-10-3.7-14.9-8.4-30.7-20.5-59.9-37.5-86.7-9.4-14.7-20-28.6-30.4-42.6-4.3-5.8-8.9-11.5-14.1-16.5-9.4-8.9-19.4-17.1-29.1-25.7-11.6-10.2-24.4-18.8-37.6-26.6-10.6-6.2-21.7-11.8-32.7-17.2-7.2-3.6-14.6-7.1-22.2-9.7-10.7-3.8-21.7-6.9-32.6-10.1-6.9-2-13.9-4.1-20.9-5.4-7.6-1.4-15.4-2.1-23.1-2.9-10.1-1-20.3-2.1-30.4-2.7-8.1-.4-16.3-.5-24.4,0-9.7.5-19.3,1.4-28.9,2.5-7.3.8-14.6,2.2-21.9,3.5-7.7,1.4-15.5,2.3-22.9,4.6-12.4,3.9-24.7,8.3-36.8,13.1-11.1,4.4-22.1,9-32.6,14.6-12.8,6.8-25.8,13.5-37,23-6.7,5.6-14.6,9.8-21.1,15.7-11.9,10.7-23.6,21.8-34.5,33.5-8.1,8.8-15.1,18.6-22.3,28.3-5.4,7.3-11.1,14.7-15.3,22.8-7.9,14.9-15.2,30.1-22.1,45.4-7.5,16.8-13,34.3-16.6,52.4-2.2,10.8-4.3,21.7-6,32.6-2,13.2-3,26.4-2.9,39.9.2,17.6,1.3,35.2,4.3,52.5,2.2,12.5,4.5,25,7.8,37.3,14.8,54.5,41.8,102.3,80.7,143.2,25.8,27.1,55.7,48.8,89,66,45.6,23.5,94,35.6,145.2,36.7,32.9.7,65.3-3.4,97.1-12.4,33.4-9.4,64.5-23.6,93.4-42.5,38.5-25.2,70.2-57.2,95.4-95.6,20.6-31.3,35.3-65.3,44.6-101.5,6.2-24.1,9.3-48.9,10.1-73.8.8-27-2.4-53.6-8-80.7Z"/>
  <path class="st6" d="M456,219.7c7.8,0,15.4,0,22.9,0l.4,1.4c-1.1.6-2.2,1.5-3.4,1.8-4.6,1-7,3.8-8.2,8.2-1.5,5.7-3.2,11.2-5,17.3,1.5.2,2.5.5,3.6.5,8,0,16-.2,24-.1,2.4,0,3.6-.8,4.3-3.2,1.4-4.9,3-9.8,4.4-14.7,1.5-5.3,1.2-5.9-3.7-8.4-.4-.2-.8-.5-1.2-.9-.2-.2-.2-.4-.6-1.6,8.7-1,17.1-.5,25.5-.6.1.4.2.9.3,1.3-1.3.6-2.8,1.1-4,2-1.9,1.4-4.5,2.9-5.2,4.8-4.9,15.5-9.5,31.1-14.1,46.6-.6,2.2,0,3.9,2.3,4.8,1,.4,1.9.9,3,1.5-1.8,2-22.5,2.7-26.3.8,1.8-.8,3.3-1.3,4.5-2.1,2.1-1.4,5.1-2.6,5.9-4.6,2.7-6.8,4.6-13.9,7-21.3-1.5-.2-2.4-.5-3.3-.5-8.1,0-16.2.2-24.4.1-2.4,0-3.7.9-4.3,3.2-1.4,5.1-3,10.1-4.4,15.1-1.5,5.4-1.1,6.2,4,8.6.6.3,1.2.8,1.8,1.2-1.8,1.9-23.5,2.6-27.3.6,2-.9,3.4-1.7,4.9-2.2,3-.9,4.8-2.8,5.7-5.9,4.3-14.6,8.6-29.2,13-43.8,1-3.3,1-5.9-3.1-7-.6-.1-1-1-1.5-1.5.7-.6,1.4-1.1,2.4-1.7Z"/>
  <path class="st9" d="M71.3,561.1c.6-5.4,1.1-10.4,1.7-15.5.5,0,1,0,1.5,0,.5,1.3,1.1,2.5,1.3,3.9.5,3.3,2.2,5.5,5.2,6.8,14.3,6.3,28.6,12.6,42.9,18.9,2.6,1.2,4.8.9,6.2-2.1.4-.8,1.1-1.4,1.7-2.2.5.1.9.3,1.4.4-.9,8.4-1.9,16.8-2.8,25.1-.4,0-.9.2-1.3.2-.5-1.2-1.2-2.4-1.3-3.7-.5-4.3-2.7-7-6.7-8.7-5.8-2.5-11.5-5.1-17.8-8-.4,2.6-.8,4.5-1,6.5-.8,6.9-1.5,13.9-2.5,20.8-.4,2.7.6,4.1,3.1,5.1,4.9,1.9,9.6,4.2,14.4,6.2,4.6,1.9,5.6,1.5,8.2-2.6.5-.8,1.3-1.5,1.9-2.3.4.2.9.3,1.3.5-1,8.7-2,17.5-3,26.2-.5,0-.9,0-1.4.1-.5-1.3-1.2-2.6-1.4-3.9-.4-3.8-2.5-6-5.9-7.4-13.4-5.8-26.7-11.8-40.1-17.7-5.1-2.2-5.1-2.1-8.7,2.3-.3.4-1,.6-2.7.6l2.9-25.1c.5,0,1-.2,1.5-.2.4,1.4,1.1,2.7,1.3,4.1.5,4.2,2.6,6.8,6.5,8.4,4.8,2,9.7,4.1,14.4,6.3,2.4,1.1,3.4.5,3.7-2.1.9-8.2,2-16.4,2.7-24.6.1-1.3-1.2-3.3-2.3-3.9-4.6-2.4-9.5-4.4-14.3-6.5-4.8-2.1-5.5-1.9-8.5,2.5-.4.6-1.2,1-1.8,1.5-.4-.1-.8-.2-1.2-.3.3-3.1.6-6.2.9-9.6Z"/>
  <path class="st9" d="M855.9,488.6c-12.8,2-25.3,3.9-37.7,5.8q-6.5,1-7.2,7.2c0,.3-.3.6-.5.9-2.3-.9-11.7-19.5-11.5-23.5,1.4,1.2,2.6,1.9,3.5,3,2.6,3.1,5.7,4.3,9.7,3.7,6-.9,12.1-1.8,18.2-2.7.5,0,.9-.4,1.6-.9-3-6.2-6-12.4-9-18.6q-4.3-8.9-14-7.3c-3.2.5-6.4,1-9.6,1.5-4.8.8-5.6,1.9-5.4,6.7,0,.9-.2,1.8-.3,2.8-.5.1-.9.3-1.4.4-3.9-7.9-7.7-15.8-11.6-23.7.3-.3.7-.6,1-.9,1.2.9,2.5,1.6,3.4,2.6,2.3,2.8,5.1,3.7,8.7,3.1,14.9-2.4,29.9-4.6,44.8-6.8,3.5-.5,5.7-1.8,4.9-5.9-.1-.6.4-1.3.6-2,2.4,1.1,11.5,19,11.6,23.7-1.6-1.3-2.9-2.1-3.8-3.2-2.6-3.1-5.7-4.2-9.7-3.6-6.1,1-12.3,2-19.1,3,1.4,3,2.4,5.3,3.5,7.6,2.8,5.7,5.6,11.4,8.3,17.2,1.1,2.3,2.4,3.2,5,2.7,5-.9,10.1-1.5,15.2-2.3,5.3-.9,5.7-1.4,5.8-6.7,0-.8.4-1.5.6-2.3.4-.1.8-.2,1.3-.4,3.7,7.5,7.4,15,11.2,22.5-.3.3-.6.7-1,1-2.4-1.7-4.6-4.3-7.3-5-2.8-.8-6.1.1-9.6.4Z"/>
  <path class="st9" d="M674.2,317.5c2.6-2.5,5.1-4.8,7.9-7.4-1.2-.9-2-1.6-2.9-2.1-6.9-4-14-7.8-20.9-11.8-2.2-1.3-3.7-1.2-5.6.7-3.6,3.6-7.4,7-11.1,10.6-4.2,4.1-4.2,4.8-.8,9.7.4.6.6,1.3.8,2-2.6.6-21.9-9.9-24-13.3,2,.2,3.5,0,4.9.5,3.4,1,6,0,8.5-2.3,10.7-10.2,21.4-20.3,32.1-30.4,4.1-3.9,4.1-4,1.3-8.9-.3-.5-.2-1.1-.6-3,8.7,3.9,15.6,8.9,23.2,12.6-.1.5-.3,1-.4,1.5-1.4,0-2.9,0-4.2-.3-4-1.3-7.3-.2-10.3,2.7-4.4,4.3-8.8,8.4-13.6,13,1.2.9,1.9,1.6,2.8,2.1,6.9,4,13.9,7.8,20.8,11.8,2,1.2,3.5,1.3,5.3-.5,3.9-3.9,8-7.6,12-11.3,2.7-2.5,3.4-5.1.6-8.1-.5-.6-.5-1.7-.7-2.6.8,0,1.8-.3,2.4,0,6.4,3.5,12.7,7,19,10.6.4.3.7.9,1.5,2.2-2.1-.1-3.5,0-4.8-.3-3.2-.8-5.9-.1-8.3,2.1-11.4,10.8-22.8,21.6-34.3,32.5-2,1.9-2.4,3.9-.3,6.2.6.6.9,1.6,1.3,2.4-.3.4-.6.8-.9,1.1-7.4-4.1-14.7-8.2-22.1-12.3.1-.4.2-.9.3-1.3,1,0,2-.3,2.9,0,5.3,1.9,9.5,0,13.1-3.9,1.4-1.6,3.1-2.9,4.8-4.6Z"/>
  <path class="st6" d="M256.3,355.2c-7.8-3.1-15.3-6.2-22.9-9-1.3-.5-2.8-.1-4.2-.1.2,1.3.2,2.7.6,3.8,2.1,5.1,4.3,10.1,6.5,15.1,2.3,5.1,3,5.4,8.6,4.3.7-.1,1.5.1,2.3.2.1.3.3.6.4,1-6.9,5.7-13.9,11.4-20.8,17.1-.4-.3-.7-.5-1.1-.8.6-1.2.9-2.6,1.7-3.6,2.7-3.3,2.9-6.7,1.3-10.5-5.6-13.6-11.2-27.3-16.7-41-1.4-3.5-3.5-5-7.3-3.3-.8.3-1.8.1-3.1-.5,6-6.3,12.8-11.5,19.5-16.8.4.3.8.6,1.2,1-.8,1.4-1.9,2.7-2.3,4.2-.7,2.1-1.7,4.7-1.1,6.6,2.1,6.3,4.9,12.3,7.5,18.4.2.4.6.7,1.6,1.7,1-1.9,2.3-3.3,2.6-4.9,1.7-9.6,3.3-19.2,4.8-28.8.4-2.6-.5-3.8-3.4-3-.7.2-1.6,0-2.4-.1-.2-.4-.5-.8-.7-1.1,6.5-5.6,13-11.1,19.6-16.7.4.3.8.6,1.2.9-.4,1.1-.6,2.5-1.4,3.3-6,6.5-8.5,14.6-10,23.1-1,5.9-1.9,11.8-3,17.7-.5,2.5.2,4,2.7,4.9,6.3,2.1,12.4,4.5,18.7,6.5,5.9,1.9,12,2.6,17.9,0,.6-.2,1.2-.3,1.8-.4.3,0,.6.3,1.9.9-7.1,6.8-15.1,11.8-22,18-.2-.2-.4-.5-.6-.7.2-2.3.4-4.6.4-7.1Z"/>
  <path class="st9" d="M256.5,971.5c-16.3,6.6-30.8,3.5-44.1-7.1-7.2-5.8-14.2-11.8-21.3-17.7-.8-.7-1.4-1.5-2.1-2.2.2-.4.4-.7.6-1.1,1.3.4,2.7.5,3.7,1.2,3.3,2.2,6.6,2.1,9.8,0,12.8-8.4,25.7-16.8,38.5-25.3,3-2,2.9-3.6.6-7.3-.9-1.4-1.1-3.2-1.6-4.8,1.6.8,3.4,1.3,4.7,2.3,5.7,4.4,11.4,8.9,16.9,13.5,2.3,1.9,4.5,4,6.4,6.3,9.6,12.1,8,26.7-4.2,36.9-2.4,2-5.2,3.4-8.1,5.3M250.1,963.3c5.9-3.3,10.7-7.8,14.2-13.6,6.6-10.9,2.9-19.5-6.9-25.8-1.3-.9-3.9-.8-5.5-.1-2.4.9-4.5,2.7-6.7,4.1-10.3,6.9-20.6,13.7-30.7,20.8-5.4,3.7-5.5,7.8-.9,12.4,3.8,3.8,8.5,6.1,13.9,6.8,7.9,1.1,15.1-.7,22.5-4.6Z"/>
  <path class="st1" d="M395.2,1011.9c2-3.2,3.9-6.1,5.6-9.2,2.7-4.9,2-7-2.6-10-1.2-.8-2.2-1.7-3.2-2.6.2-.5.4-1,.7-1.5,8.3,2.3,16.6,4.7,24.8,7,0,.5-.1,1-.2,1.5-1.4.2-2.8.6-4.1.4-3.6-.5-6.4.8-8.4,3.7-8.4,12-16.8,23.9-25.1,35.9-1.8,2.5-1.5,5.2-.1,7.8.7,1.3,1.3,2.6,2,3.9-7.6,1.8-13.2-1.7-14.1-8.6-1.7-13.4-3.3-26.8-5.1-40.2-.4-2.9-1.1-5.7-1.7-8.6-.6-.3-1.3-.7-1.9-1-.7,1.3-1.4,2.6-2.2,3.8-6.4,9.8-12.9,19.6-19.2,29.5-3.6,5.6-3.3,6.8,2.1,11.1.6.5,1.1,1.2,1.4,2.4-8.1-1.1-15.6-3.9-23.3-6.1,0-.5,0-.9.1-1.4,1.3-.2,2.7-.7,4-.7,4.1,0,7.2-1.6,9.5-5,8.1-11.4,16.2-22.8,24.2-34.3,3.8-5.4,3.1-7.5-2.8-10.9-1.1-.6-2-1.5-3.7-2.9,1.8-.4,2.6-.8,3.3-.6,4.6,1.4,9.4,2.8,13.8,4.7,1.3.6,2.4,2.8,2.6,4.5,2.3,14.6,4.4,29.2,6.6,43.7.2,1.4.6,2.8,1.6,4.5,5.9-6.5,10.2-13.9,15.1-21.3Z"/>
  <path class="st1" d="M739.4,976c-1.1.7-1.9,1.1-2.8,1.6-.3-.2-.5-.5-.8-.7.5-1.3.9-2.7,1.6-3.9,2-3.3,2.2-6.6.6-10-5.8-13.1-11.6-26.3-17.6-39.3-2.5-5.4-4.9-5.9-10.1-2.8-1.2.7-2.6,1.1-4.7,2,.5-1.7.6-2.6,1-3.2.6-.8,1.3-1.5,2.1-2.1,13.1-10.8,7.5-10,23.2-3.8,10.8,4.2,21.5,8.7,32.3,13.1,1.2.5,2.5.9,4.7,1.6-.4-2-.5-3.3-1-4.4-4.7-9.7-9.4-19.3-14.3-28.9-3-5.9-5.2-6.3-11.1-3.4-1,.5-2.2.8-3.3,1.1-.3-.4-.6-.9-.9-1.3l18.7-17.8c.4.3.8.6,1.2.9-.5,1.2-.7,2.5-1.4,3.4-3,3.5-2.5,7.1-.8,10.8,4.4,9.8,8.8,19.6,13.2,29.4,1,2.3,2.3,4.5,3.1,6.8,1.7,4.6,4.8,6.8,9.7,6.5.8,0,1.6.3,2.5.4-2.1,7.2-8.1,10.3-14.5,7.5-12.6-5.4-25.2-10.9-37.8-16.3-2.4-1-5-1.7-8.7-2.9.8,2.7,1.1,4.2,1.8,5.5,5,10.3,10.1,20.6,15.3,30.9,3.2,6.3,4.2,6.6,10.8,4.2.7-.3,1.6-.3,2.4-.4.3.3.5.7.8,1-5,4.8-10,9.6-15.1,14.6Z"/>
  <path class="st1" d="M186.3,402.6c1.9,2.5,3.7,4.7,5.4,7.1,2.3,3.4,5.4,4.5,9.4,3.6,1.1-.3,2.3-.2,4.5-.3-2.4,3.8-3.8,7.2-6.2,9.4-1.4,1.3-4.7,1.4-6.9,1-12.4-2.3-24.7-5-37.1-7.4-3.9-.8-7.9-1.2-11.9-1.7-.2.4-.4.8-.5,1.2.7,1.3,1.2,2.6,2,3.7,7.2,9.2,14.5,18.5,21.9,27.6,4.2,5.1,5.4,5.2,10.9,1.6.7-.5,1.6-.8,2.4-1.1.3.3.7.7,1,1l-13.6,19.5c-.4-.2-.9-.4-1.3-.5.2-1.3.1-2.8.5-4,1.3-4,.7-7.5-1.9-10.9-7.9-10.7-15.7-21.6-23.6-32.4-4.9-6.6-6.4-6.8-12.7-1.5-.8.6-1.7,1-3.6,2.1.5-2,.4-3.1.9-3.7,2.7-3.7,5.3-7.6,8.4-11,1.1-1.2,3.9-1.5,5.7-1.2,14.4,2.4,28.8,5,43.2,7.6,1.5.3,3.1.3,5.5.5-1.2-2-1.8-3.4-2.6-4.5-6.3-8.1-12.6-16.1-19.1-24-4.9-6-6.4-6-12.6-1.3-.8.6-1.8.9-2.7,1.3-.3-.3-.7-.7-1-1l14.6-21.5c.4.2.9.4,1.3.6-.2,1.1,0,2.4-.5,3.3-2.6,4.6-1,8.4,1.8,12.1,6.1,8.2,12.2,16.5,18.4,24.9Z"/>
  <path class="st9" d="M603.4,1041c-13.2-5.2-17.2-16.1-17.9-28.5-.6-10.3,2.3-19.7,8.9-27.9,5-6.3,11.4-10,19-11.9,8.6-2.1,15.7.9,20.8,7.7,15.1,19.7,6.3,54-19.8,60.5-3.4.8-7.1.2-10.9,0M624.6,981.9c-6.8-8.4-16.2-8.2-21.8,1.1-9.2,15.1-9.3,31.1-1.7,46.8,5.1,10.5,15.9,10.7,22.8,1.3,9.1-12.3,9.5-34.8.7-49.2Z"/>
  <path class="st9" d="M885.8,599.4c8,7.4,12.6,16.2,12.3,26.9-.3,10.7-6.1,17.7-16.5,20.5-19.2,5.3-42.1-7.3-47.9-26.3-5.5-17.9,4.4-31.8,23.1-32.1,10.9-.2,20.5,3.6,29,10.9M838.6,620.6c7.5,10.1,18.2,14.3,30.1,16.4,6.5,1.1,12.9,1.3,19.1-1.6,6.4-3,8.7-8.1,6.4-14.8-.7-2.1-1.8-4.2-3.2-5.8-9.2-10.8-21.6-14.8-35.1-16-2.5-.2-5,0-7.4.4-12.2,2-16.1,10-9.8,21.3Z"/>
  <path class="st9" d="M887.3,540.9c4.7,15.5-5.1,25.5-16.8,28.8-21.7,6.1-44.5-6.2-49.8-26.8-2.5-9.8.7-18.4,9.3-23.6,19.9-12.1,50.6-1.7,57.3,21.6M881.4,536.8c-10.7-11.1-34.4-15.3-49-8.7-10.7,4.8-12.1,15.2-3,23,11.2,9.7,33.7,12.6,47.1,6.1,9.1-4.5,10.9-11.4,4.9-20.3Z"/>
  <path class="st9" d="M345.4,268.3c1.1-10,4.3-18.7,11.1-25.9,5.7-6,12.5-9.5,20.6-10.4,8.7-1,15.4,3,19.7,10.4,7.2,12.5,6.9,25.6.7,38.4-4.4,9-11.2,15.5-20.9,18.7-11.9,3.9-22.7-.8-27.8-12.2-2.6-5.9-3.7-12.1-3.4-18.9M356.2,267c1,6.7,1,13.8,3.2,20.2,4.3,12.2,16.1,13.8,23.6,3.3,10.3-14.5,11.1-30.6,4.1-46.6-4.7-10.7-15.5-11.3-22.7-2-5.6,7.2-7.5,15.7-8.3,25.2Z"/>
  <path class="st1" d="M630.9,248.8c2.2.4,4,.7,6.3,1-.6,1-.9,1.5-1.3,2-3.2,3.6-6.5,7.2-9.8,10.8-.7.7-1.8.9-2.7,1.4-.2-1-.5-2-.5-3,0-.6.3-1.2.5-1.8,2.4-7.8-1-13.6-9-15.3-7.3-1.6-14,.5-20,4.3-9.4,6-15.8,14.5-19,25.2-2.7,8.9,1.4,18.1,9.4,22.3,5.7,3,10.8,1.9,14.6-3.2,2.1-2.8,3.8-5.9,5.8-8.8,1.5-2.2,1.1-3.9-1.2-5.3-1.7-1.1-3.4-2.3-5.3-3.7,2.7-1.2,23.3,4.9,26,7.5-1.3.5-2.3,1-3.4,1.1-5.9.5-12.9,7.3-13.8,13.3-.2,1.3-1.3,3.2-2.4,3.5-14.3,3.7-33.7-2.8-38.8-17.6-3.4-9.8,1.6-24,10.8-32.4,14.6-13.5,39.9-13.6,52.1-2.4.4.4,1.1.7,1.9,1.1Z"/>
  <path class="st1" d="M309.4,1009.9c.3.1.5.2.5.3-.2,4.6-9.3,10.8-13.2,8.7-13.1-6.9-26.2-14-39.3-21.1-.6-.3-1.3-.7-1.9-1.1.2-.5.4-.9.5-1.4,1.4,0,2.9,0,4.2.3,4.9,1.6,8.6,0,12.1-3.5,9.7-9.9,19.6-19.6,29.4-29.4,4.5-4.5,4.5-4.7.3-9.3-.5-.6-.9-1.4-1.3-2.1.2-.3.3-.7.5-1,1.5.5,3,.8,4.4,1.5,11,5.7,21.9,11.3,32.8,17.2.9.5,2,2.6,1.7,2.9-2.7,3.3-5.7,6.4-8.6,9.5-.4-.2-.9-.5-1.3-.7.4-1.4.6-2.8,1.1-4.1,1.8-4.6,1.4-6.3-2.9-8.6-13.4-7.1-10.5-7.6-20.9,2.6-2.3,2.3-4.6,4.6-6.9,6.8-2.2,2.1-2.3,3.7.7,5,2.2,1,4.3,2.1,6.3,3.2,3.1,1.8,6.1,1.9,9.3.5,1.2-.5,2.7-.6,4-.9.2.3.4.7.6,1-4.5,4.2-8.9,8.4-13.4,12.7-.3-.2-.7-.3-1-.5.3-1.3.4-2.7.9-3.9.9-2.5.3-4.3-2.1-5.7-13-7.3-9.9-6.8-18.8,2.1-2.7,2.7-5.4,5.5-7.9,8.5-2.4,2.9-2,4.9,1.2,6.8,3.9,2.3,7.7,4.9,11.9,6.1,3.3,1,7.3.3,10.9-.2,2-.3,3.9-1.6,6.1-2.3Z"/>
  <path class="st1" d="M701.4,954.7c1.6,9,3.8,17.7,4.6,26.5,1.2,13.7-7.7,25.1-21.1,28.5-8.8,2.2-16.8-2.1-19.9-11.4-2.7-8.2-4.7-16.6-7-24.9-.5-1.8-1-3.6-1.5-5.4-1.6-5.9-1.8-6-7.9-6.7-.4,0-.8-.5-2.3-1.4,7.3-4.6,14.1-8.7,20.8-12.9.3.3.6.6.8,1-.3.7-.4,1.7-.8,2.2-3.3,3.7-3.2,7.9-2.1,12.3,2.5,9.4,5,18.8,7.6,28.2.5,1.7,1.1,3.3,1.9,4.9,3.3,6.4,9.6,8.7,16.1,5.7,8.9-4.1,12.8-11.9,11.4-20.8-1.9-12.6-5.6-25-8.8-37.5-.9-3.3-3.5-5.1-7.3-4.2-.9.2-1.8,0-2.8,0-.2-.4-.4-.9-.6-1.3l18.2-11.8c.4.3.7.6,1.1.9-.6,1.1-1,2.4-1.9,3.4-2.1,2.5-2.9,5.2-2.2,8.4,1.1,5.4,2.3,10.8,3.5,16.4Z"/>
  <path class="st1" d="M133,504c-8.9-7.5-17.6-14.9-26.3-22.2-4.7-4-5-3.9-9.2.7-.5.6-1.3,1-2,1.4l-1-.4c.4-1.5.6-3.1,1.2-4.5,4.7-11.4,9.4-22.9,14.2-34.2.4-.9,2.4-2.1,2.7-1.9,3.5,2.4,6.9,5.1,10.3,7.7l-.5,1.3c-1.4-.2-2.8-.3-4.2-.7-4.9-1.4-6.4-.8-8.5,3.9-1.1,2.4-2,4.9-3.1,7.2-1.6,3.3-1.1,5.9,1.8,8.3,4.6,3.7,9,7.5,13.4,11.4,2.2,1.9,3.7,1.8,4.7-1.1.7-2,1.5-4,2.4-5.9,1.8-3.6,1.9-7.2-.2-10.7-.6-1-.8-2.2-1.2-3.2.3-.3.7-.5,1-.8,4.6,4.1,9.2,8.1,13.8,12.2,0,.3-.2.7-.3,1-1.3-.1-2.7-.1-3.9-.5-2.8-.8-4.6,0-5.7,2.7-5.9,13.4-6.1,10.2,3.9,18.5,2.9,2.4,5.8,4.8,8.9,6.9,3.3,2.3,5.2,1.8,6.9-1.7,1.8-3.8,3.5-7.7,5-11.7,1.6-4.4.8-8.6-1.6-12.6-1-1.6-1.8-3.3-2.9-5.3,6.6.3,12.2,8.6,10,13.8-5.5,12.9-11,25.7-16.6,38.5-.4,1-1.2,1.9-1.8,2.9-.4-.1-.8-.2-1.2-.3,0-1.1-.2-2.3,0-3.4,1.5-5.6-.4-9.7-4.9-13-1.7-1.2-3.3-2.7-5.1-4.2Z"/>
  <path class="st1" d="M287.6,281.7c1.5,9.1,2.9,17.8,4.5,26.6.4,2.3,1,4.7,1.8,6.9,2.6,6.4,8.7,9.1,15.3,6.9,6.9-2.3,11.1-7.2,12.7-14.1.9-3.7,1.5-7.7,1-11.5-1.1-9.8-2.7-19.5-4.5-29.2-1.2-6.7-2.3-7.2-9.1-7.9-.5,0-.9-.3-1.8-1.6,6.5-3.3,12.9-6.7,19.4-10,.3.3.6.7.9,1-.5.8-.9,1.9-1.6,2.5-3.5,2.9-4.1,6.6-3.5,10.8,1.1,8.7,2.5,17.3,3.2,26,.5,6.6,1,13.3,0,19.7-2,14.5-15.1,21.1-24.6,22.1-8.3.9-15.1-4.1-17.3-12.9-1.9-7.7-2.9-15.7-4.3-23.6-.5-3-1-5.9-1.5-8.9-.6-3.8-1.9-6.8-6.6-6.5-.5,0-1.1-.4-2.1-1.8,7.1-3.6,14.2-7.1,21.3-10.7.5.3.9.6,1.4,1-4.2,4.3-6.6,9-4.9,15.1Z"/>
  <path class="st1" d="M179.4,916.8c-12.6,1.4-22.5-3.8-28.4-14.5-5-9.1-2.7-18.5,6.4-23.4,8.5-4.5,17.4-8.2,26.1-12.3,1.5-.7,3-1.4,4.4-2,3.4-1.5,5.3-3.7,4-7.6-.2-.5,0-1.2,0-1.8,2.7.4,15,13.8,16.5,18.2-1.3-.3-2.4-.3-3.2-.8-3.7-2.2-7.4-1.9-11.1-.2-9.2,4.2-18.5,8.2-27.7,12.5-7.1,3.3-10.3,8.1-9.6,13.7.7,6,6.8,12.3,13.4,13.8,6.2,1.4,12.3.8,18-1.6,8.2-3.4,16.3-7,24.4-10.6,5.6-2.5,10.5-5.6,7.2-13.6,6.5,4.5,10.4,10.8,15.8,15.7-.3.4-.6.9-.9,1.3-1-.3-2.2-.4-3.1-1-3.5-2.4-7-2.2-10.7-.7-9.9,4-19.7,8-29.6,11.8-3.7,1.4-7.7,2.1-11.9,3.2Z"/>
  <path class="st1" d="M771.1,856.9c1.6-10.1,6.3-18.1,14.1-24.3,2.8-2.2,4.9-5.3,7.6-8.3.4.6,1,1.6,1.6,2.6,2,3.4,4.1,6.9,6,10.4.6,1.2.7,2.6,1.1,3.9-1.3-.4-2.9-.5-4-1.2-7.2-5-14.8-3.1-18.4,5-.9,2-1.9,4.4-1.7,6.4.5,5.8.9,11.8,2.8,17.2,3.4,9.7,9.9,17.3,19,22.4,5.6,3.2,11.5,3.8,17,0,5.7-4,8.7-9.6,7.7-16.8-.4-2.8-1.4-5.5-2.1-8.3-.3-1.3-.6-2.5-1-3.8.3-.2.6-.5.8-.7,1,.7,2.3,1.1,2.9,2,2.2,3.3,4.2,6.8,6.1,10.3,1,1.8.6,2.8-1.2,4.3-1.9,1.6-3.3,4.2-4.3,6.6-5.5,13.4-21,20.4-33.2,14.2-12.4-6.3-19.3-16.7-21-30.4-.4-3.7,0-7.5.2-11.5Z"/>
  <path class="st1" d="M522,1010.5c9.8-14.8,22.8-22.3,40.8-19.8,2.8.4,5.7-.7,8.8-1.1,0,.5.2,1.3,0,2.1-1.1,4.5-2.3,8.9-3.6,13.4-.3,1-1.2,1.9-1.9,2.8-.6-1-1.6-1.8-1.9-2.9-2.5-11-10.8-14.5-20.4-8.3-8.8,5.7-13.3,14.4-14.8,24.2-1,6.4-.8,13.2.2,19.6,1,6.9,5.4,11.8,12.7,13.1,7.3,1.3,14.3-1.9,18.3-8.4,1.8-2.9,3.3-6,5.4-9.8.7,1.7,1.4,2.4,1.3,3.1-1,4.6-2.1,9.2-3.4,13.8-.2.7-1.6,1.3-2.6,1.5-2.7.6-5.7.4-8.1,1.5-13.4,5.8-29,.3-33.9-12.8-4.1-10.9-2.7-21.6,3-32.1Z"/>
  <path class="st1" d="M760.8,389.1c20-20.1,54.9-12.7,64.9,13.5.7,1.9,1.2,3.9,2.3,5.5,1,1.4,2.6,2.4,4.3,3.9-1.2.5-1.9,1-2.7,1.1-4.6,1.1-9.2,2.1-13.9,3-.9.2-2-.3-3-.4.5-.9.7-2.2,1.4-2.7,3-2.1,5.8-4.4,6.3-8.4.8-5.8-1.8-10.3-6.5-12.9-4.4-2.3-9.5-4.2-14.4-4.7-12.6-1.2-23.9,2.7-33.5,11.2-4.8,4.3-7.1,9.8-5.2,16.2,2,6.5,6.3,11.1,13.2,12.5,3,.6,6.2.4,9.3.7,1.3,0,2.5.3,3.8.4l.2,1c-1.1.7-2,1.6-3.2,2-2.7.9-5.5,1.5-8.3,2.1-3.3.8-6.3,1.4-7.1-3.6-.2-1.6-2.6-2.9-4.1-4.1-11.8-9.6-13.4-24.2-3.9-36.4Z"/>
  <path class="st1" d="M479.6,999.4c2.3-.7,4.2-1.3,7.4-2.3-2.9,6.4-5.3,11.7-7.6,17-.5,0-.9,0-1.4-.1-.2-1.6-.6-3.2-.7-4.7-.4-4.9-1.7-6.4-6.6-6.9-10-1.1-10.1-1.2-13.6,8.2-4.6,12-9.1,24.1-13.6,36.1-2.5,6.6-2.4,6.8,3.7,10.6.5.3.8.8,1.2,1.2,0,.4-.2.8-.2,1.2-9.4-.7-18.8-1.3-28.1-2l-.2-1.4c1.4-.5,2.8-1.1,4.2-1.4,4.4-.7,7.2-3,8.8-7.2,5.2-13.8,10.5-27.5,15.6-41.4,1.8-4.9,1.1-5.5-3.8-6.2-6.5-.9-11.8,1-16.2,5.7-1.3,1.4-2.8,2.4-4.3,3.6-.3-.3-.7-.5-1-.8.2-1,.3-2.1.8-2.9,2-3.6,4.1-7.1,6.2-10.7,1.2-2,2.4-1.9,4.3-.7,1.7,1.1,3.8,2.1,5.8,2.2,13.1,1,26.1,1.8,39.6,2.6Z"/>
  <path class="st1" d="M67.4,669.3c-3-7.4-3.6-14.7-2-22.3.7-3.5.4-7.1.6-11.2,5.6,2,11.6,4.2,17.6,6.4,0,.4,0,.8.1,1.2-1.2.5-2.4,1.2-3.7,1.3-10.4,1.1-14.8,8.7-10.5,18.3,2.3,5,5.8,9,10.4,12,10.1,6.9,21.2,9.8,33.4,7.7,6.2-1,11.1-4.2,13-10.4,1.9-6.4,1.1-12.5-3.7-17.4-2.2-2.3-5.1-3.9-7.7-5.9-1.1-.8-2.2-1.7-3.4-2.6.1-.4.2-.7.3-1.1,1.2,0,2.6-.3,3.7,0,3.7,1.2,7.3,2.5,10.9,3.9,1.9.7,2.3,1.8,1.9,4-.4,2.6.3,5.6,1.1,8.2,4.3,13.7-3.5,28.8-16.9,31.9-13.4,3.1-25.4-.5-35.1-10-4-3.9-6.7-9.2-10-14.2Z"/>
  <path class="st1" d="M133,763.4c-4.6.8-7.5,3.5-9.4,7.2-1.8,3.6-3.3,7.3-5,10.9-3.2,7-8.3,11.6-16.4,11.7-8,.1-14.1-3.7-17.5-10.7-2.2-4.5-3-9.7-4.4-14.5-.7-2.4-1.3-4.9-2.3-7.1-1-2.1-.3-3.3,1.7-3.4,5-.4,9.9-.6,14.9-.7.7,0,1.3.8,2,1.2-.4.6-.6,1.4-1.2,1.7-1.4.8-2.9,1.4-4.4,2.1-4,2.1-6.9,5.2-6.6,10,.4,5.8,3,10.4,8.5,12.6,4.6,1.8,9,.8,12.5-2.6,2.1-2.1,3.5-4.8,4.9-7.4,1.8-3.3,3.2-6.8,5.1-10,6.5-10.6,19.3-11.9,28-2.9,3.8,3.9,5.9,8.6,6.7,13.9.6,4.1,1.3,8.2,2.1,12.9h-17.4c-.2-.3-.3-.6-.5-.9,1.5-.8,2.9-1.8,4.4-2.5,5.6-2.8,8.3-7.1,7.4-12.1-1-5.9-5.9-9.5-13.2-9.3Z"/>
  <path class="st1" d="M174.4,825.6c2.4,4,4.5,7.9,6.9,11.5,2.7,3.9,5.7,7.6,8.9,11.8-5.4,1-11.1,2.1-16.8,3.2-.2-.4-.4-.8-.6-1.3,1.2-1.1,2.4-2.2,3.6-3.3,3.7-3.1,4.1-5.2,1.7-9.5-4.8-8.7-4.8-8.7-14.3-6.4-12.5,3.1-24.9,6.3-37.4,9.5-6.9,1.8-7.2,2.2-6.7,9.4,0,.4-.2.9-.3,1.4-2.2-.7-14.6-20.4-15.2-24.8,1.6,1.1,2.8,1.7,3.7,2.6,3.3,3.5,7.2,4.5,11.9,3.3,13.4-3.5,26.9-6.8,40.3-10.2,1.3-.3,2.6-.8,3.9-1.2,2.4-.8,2.9-2.2,1.7-4.6-3.3-6.5-8-10.7-15.5-11.5-1.6-.2-3.1-.9-4.7-1.4,0-.4,0-.8,0-1.2.9-.4,1.8-1,2.8-1.1,4.1-.4,8.2-.7,12.3-1,1.9-.1,2.8.6,3.1,2.7.4,2.6,1,5.4,2.2,7.7,2.5,4.9,5.5,9.5,8.5,14.5Z"/>
  <path class="st6" d="M750.6,369.7c-4.5,11.8-17.7,16.1-28.3,8.8-4.4-3-7.5-7.8-11.3-11.8-1.6-1.7-3.2-3.6-5.1-5-1.8-1.4-2-2.7-.2-3.8,4.4-2.6,8.9-5.1,13.3-7.5.5-.3,1.4,0,2.1,0,0,.8.1,1.7-.2,2.3-.8,1.4-2,2.5-3,3.9-2.8,3.8-3.7,7.9-1.3,12.3,2.5,4.6,8.5,7.8,13.6,7.1,5.1-.7,8.4-3.8,9.9-8.5.7-2.1.7-4.4.8-6.7,0-3.4-.1-6.7-.2-10.1-.1-7.6,2.6-13.8,9.7-17.3,6.9-3.4,13.8-1.9,19.8,2.3,2.9,2,5.1,5.1,7.4,7.8,2.3,2.8,4.4,5.8,7,9.1-4.8,2.7-10.1,5.6-15.4,8.6-.4-.4-.7-.7-1.1-1.1,1-1.4,1.9-2.8,2.9-4.2,2.7-3.7,4.2-7.7,2.2-12.3-1.8-4-5.1-6.1-9.4-6.5-6.1-.6-11.6,3.5-12.5,9.9-.5,3.7,0,7.5-.2,11.2-.1,3.7-.4,7.4-.7,11.4Z"/>
  <path class="st6" d="M859,784.5c2.6,1.8,4.8,3.6,7.3,5.1,3.2,1.8,5.1,1.1,6.5-2.2,1.1-2.6,2-5.4,2.9-8.1,2-6.2,1-11.8-3-17-1.1-1.5-2.1-3.2-3.1-4.8l.9-.9c1.1.5,2.4.8,3.4,1.5,10.7,7.5,10.9,8.3,6.2,20.4-4.1,10.6-8,21.3-12,31.9-.5,1.2-1.1,2.3-1.7,3.4-.4,0-.8-.1-1.2-.2-.1-1.5-.5-3-.3-4.4.7-5.1-1.2-8.8-5.3-11.9-10.7-8-21.2-16.3-31.8-24.5-5.2-4-5.2-4-10.3,0-.3.3-.9.3-2.7.8,2.9-9.7,7-17.9,9.6-26.7.6.1,1.1.2,1.7.3,0,1.6.3,3.2,0,4.7-.9,4.6.6,7.9,4.3,10.7,9.5,7.1,18.9,14.3,28.6,21.7Z"/>
  <path class="st6" d="M829.3,699.2c.5-6.6,1.2-12.9,1.9-19.2.9-8.4,1.9-16.9,2.9-25.3.2-1.4.6-2.8.9-4.1.4,0,.8,0,1.2-.1.4,1.4,1.1,2.8,1.2,4.2.6,5,3.1,8.1,7.7,10.1,12.6,5.4,25.1,11.1,37.7,16.7q5.5,2.5,9.1-2.6c.3-.5.9-.7,1.4-1.1,1.6,2.3-.9,25.2-3.5,28.5-.4-2.2-.9-3.8-1-5.3-.2-4.6-2.3-7.5-6.7-9.4-12.3-5.2-24.5-10.6-36.8-16-.8-.3-1.6-.7-2.4-1-5.8-2-7.5-.9-8.2,5.1-.3,2.2-.5,4.5-.6,6.7-.3,6.3,1.8,11.5,6.8,15.5,1.5,1.2,2.8,2.6,4.4,4.1-3.4,1.6-11.3-1.9-16-6.8Z"/>
  <path class="st9" d="M549.6,244.7c-4.7,9.8-9.4,19.4-14,28.9-3.1,6.5-3,6.9,2.9,11,.5.3.7.9,1.1,1.3-.1.4-.2.8-.4,1.2-9.2-1.4-18.5-2.7-27.7-4.1,0-.4-.1-.9-.2-1.3,1.2-.4,2.5-1.1,3.7-1.1,4.7-.3,7.8-2.5,9.8-6.8,5.8-12.4,11.9-24.8,17.9-37.1,2.9-6,2.8-6-2.4-9.9-.4-.3-.7-.9-1-1.4,2.3-1.5,23.3,1.3,27.2,3.8-1.6.6-2.8,1.3-3.9,1.3-5,0-8.1,2.7-9.9,7.2-.9,2.3-2.1,4.5-3.3,7Z"/>
  <path class="st9" d="M142.5,536.4c-2.5,8.4-4.9,16.6-7.3,24.7-.4,0-.9,0-1.3-.1-.2-1.3-.6-2.7-.5-4,.3-4.7-1.6-8-5.6-10.6-11.9-7.6-23.7-15.3-35.6-23-4.4-2.8-5-2.7-8.7,1.3-.3.4-.7.7-1.1,1-.3.2-.7,0-1,.1-.9-2.5,4.5-22.6,7.5-26.6.4,2.2.9,3.6.8,4.9-.4,4.5,1.6,7.5,5.4,9.8,11.4,7.2,22.7,14.7,34,22,6,3.9,6.2,3.8,11.1-1.2.5-.5,1.2-.7,1.8-1,.2.8.5,1.5.6,2.6Z"/>
  <path class="st6" d="M818.4,819.1c-3.1-3.1-6-6-9-8.9-3.6-3.4-4.4-3.4-8.2-.5-.6.5-1.4.8-2.2,1.2-.9-2.5,8.3-21.4,12.4-24.8-.1,2.1,0,3.6-.3,5-1.1,4.2,0,7.4,3.1,10.4,9.6,9.3,19,18.8,28.5,28.2q5.6,5.5,11.9,1.2c.5-.3,1.1-.3,1.7-.5.3.2.6.5,1,.7-4.3,8.3-8.7,16.6-13,24.9l-1.4-.5c.1-1.4,0-2.8.4-4.1,1.4-4.5,0-8-3.3-11.1-7.2-7-14.2-14.1-21.5-21.3Z"/>
  <path class="st3" d="M806.4,568.1c5.5,26.7,8.7,53.4,7.9,80.3-.8,24.9-4,49.6-10.1,73.8-9.2,36.2-24,70.1-44.6,101.5-25.2,38.4-56.9,70.5-95.4,95.6-29,18.9-60.1,33.2-93.4,42.5-31.8,8.9-64.2,13.1-97.1,12.4-51.1-1.1-99.6-13.2-145.2-36.7-33.3-17.2-63.2-38.8-89-66-38.8-40.9-65.9-88.7-80.7-143.2-3.3-12.2-5.7-24.8-7.8-37.3-3-17.3-4.1-34.9-4.3-52.5-.1-13.4.9-26.7,2.9-39.9,1.7-10.9,3.8-21.8,6-32.6,3.6-18.1,9.1-35.6,16.6-52.4,6.9-15.4,14.2-30.6,22.1-45.4,4.3-8,9.9-15.4,15.3-22.8,7.1-9.6,14.1-19.5,22.3-28.3,10.9-11.7,22.6-22.8,34.5-33.5,6.5-5.8,14.4-10,21.1-15.7,11.3-9.5,24.2-16.2,37-23,10.5-5.6,21.5-10.2,32.6-14.6,12.1-4.8,24.4-9.3,36.8-13.1,7.4-2.3,15.3-3.2,22.9-4.6,7.3-1.3,14.6-2.6,21.9-3.5,9.6-1.1,19.3-2,28.9-2.5,8.1-.4,16.3-.4,24.4,0,10.2.6,20.3,1.7,30.4,2.7,7.7.8,15.5,1.5,23.1,2.9,7.1,1.3,14,3.4,20.9,5.4,10.9,3.2,21.9,6.3,32.6,10.1,7.6,2.7,14.9,6.1,22.2,9.7,11,5.5,22.1,11,32.7,17.2,13.2,7.8,26,16.3,37.6,26.6,9.7,8.6,19.7,16.8,29.1,25.7,5.2,4.9,9.8,10.7,14.1,16.5,10.4,14,21.1,27.9,30.4,42.6,17.1,26.8,29.2,56,37.5,86.7,1.3,4.9,2.5,9.9,3.8,15.2M332.1,485.5c-1.3-.5-2.7-1-4.4-1.9-6.8-4.3-13.6-8.7-21.3-13.6.6,2.9.9,4.7.7,6.5-.4,0-.8,0-1.6-.3-2-3.8-3-8.3-7.7-10.6-.5-.2-1-.5-1.8-1.1-1.7-1.1-3.5-2.2-5.6-3.6-.6.4-1.9.9-1.8,1.3.2,1.3.7,2.5,1.1,4.4.2,1.1.3,2.1.2,3.7-.7.4-1.3.8-2,.6-.9-3.1-1.7-6.3-2.6-9.8-.3-.5-.6-1-1-2-1.8-1.7-3.5-3.6-5.5-4.9-10.4-6.7-20.9-13.3-31.3-19.9-.6-.4-1.2-.9-1.9-1.2-2.8-1.3-4.9-.3-4.9,2.8,0,2.4.7,4.9,1.8,7.1,9,18.5,18.3,37,27.3,55.5,22.8,47,45.4,94,68.3,141,28,57.5,56.1,115,84.2,172.5,15.3,31.3,30.5,62.7,45.7,94,1.4,2.9,3.2,4.6,6.5,4.6,3.2,0,4.9-1.7,6.2-4.4,19.9-41,40-82,59.9-123,18.6-38.2,37-76.5,55.7-114.7,13.4-27.5,27-54.9,40.5-82.4,15.5-31.8,31-63.5,46.5-95.3.2-.5.2-1.1.3-1.9-2.9.9-5.4,1.6-7.9,2.4-2.1.7-4.8.7-6.2,2.1-5.5,5.5-12.6,7.4-19.8,8.9-5.6,1.2-7.8-1.5-5.9-7,.9-2.7,2.2-5.3,3.5-8.5-3.5,1.1-6.5,2.4-9.6,2.9-3.9.6-6.7,2.4-9.6,5-4.2,3.8-9,6.9-14.8,8.1-2.1-6-1.2-10.2,2.5-11.3,0,1.7-.3,3.4.1,4.9.2.8,2.1,1.9,2.4,1.7,5.4-3.8,12-6.5,12.7-14.5.1-1.2,1.1-2.2,1.7-3.4.3.1.6.3.9.4.5,2.2,1,4.4,1.5,6.6,1.5-.5,2.4-.9,3.4-1.2,8.9-2.3,15.7-6.5,17.5-16.5.6-3.5,3.4-5.7,7-6.5,0,0,0,0,0,.6-2.2,4-4.5,8-6.6,12.1-1.1,2-.3,3.2,2,3,3-.2,5.9-.7,8.9-.9,2.3-.1,2.9-1.1,3.4-3.4,1.1-6,2.6-11.9,4.4-17.7.6-1.8,2.7-3,4.1-4.5.1.2.2.4.3.5-2.4,7.4-4.8,14.9-7.2,22.3.4.4.8.8,1.3,1.2,4.6-1.7,9.5-2.9,13.7-5.3,3.5-2.1,7-5.1,9.1-8.6,4.2-7.1,7.6-14.6,11.1-22.1.8-1.8.6-4,1-7.1-2.4,1.2-3.5,1.7-4.5,2.4-47.6,28.5-95.2,57-142.7,85.5-18.9,11.3-37.8,22.6-56.5,34.1-2.6,1.6-4.9,4.3-6.4,7-4.5,8.5-8.6,17.2-12.8,25.9-.4.9-.5,1.9-.8,3.2,31.2-15.9,61.7-31.4,92.2-47,30.5-15.7,60.8-31.8,92.4-45.7-1.5,4.7-3.6,8.8-5.4,12.9-1.7,3.9-4.5,6.4-8.2,8.3-14.1,7.1-27.9,14.5-42,21.6-38.1,19.1-75.2,40.1-114.8,56.1-1.7.7-2.9,2.3-4.4,3.5,1.9.6,3.9,2,5.7,1.7,10.1-1.6,20.2-3.2,30.1-5.6,24.6-5.9,49.2-12.1,73.8-18.6,12.4-3.3,24.5-7.5,33.4-17.5.6-.7,1.5-1.1,2.2-1.6.2,1.6-.1,2.7-.6,3.7-7.5,15.4-15,30.8-22.6,46.1-7.2,14.7-18.9,25-33.5,31.9-7.7,3.7-15.2,7-21.3,13.9-8.9,10.1-21.8,13.2-35,13.9-5.3.3-5.6.5-3.2,5.3,9.3,18.7,18.7,37.3,28,56,3,6.1.6,16.3-5.4,20.8-2-3.8-3.9-7.6-5.8-11.3-21.1-42.5-42.3-85.1-63.4-127.6-.6-1.1-1.7-2-2.6-2.9-.9,1-2,1.8-2.5,2.9-1.8,3.9-3.1,7.9-5,11.7-7.2,14.7-14.7,29.3-21.8,44-13.3,27.4-26.5,54.9-39.7,82.4-.5,1-1.3,1.9-2.5,3.7-1.9-3.8-3.3-6.7-4.9-9.6-1.9-3.4-2-6.7-.1-10.3,10.2-19.9,20.2-39.9,30.3-59.9,1.7-3.3,1.3-3.6-2.3-4.7-9.3-2.7-18.8-5.1-27.8-8.7-4.1-1.7-8-5.3-10.7-8.9-2.2-2.9-4.3-4.7-7.7-5.9-18.5-6.5-34.9-16.9-45-33.8-10.6-17.9-18.9-37.2-28.1-55.9-.3-.5,0-1.3,0-2.9,1.6,1.9,2.5,3.3,3.6,4.3,4.3,4.1,8.1,9.4,13.2,12,8.5,4.3,17.8,7.2,26.9,10.1,5.3,1.7,11,2.4,16.4,3.7,12,2.9,24,6.1,36,8.9,14.3,3.4,28.7,6.6,43.1,9.8,2.3.5,4.7.4,7,.1,1.1-.1,2.1-1.4,3.1-2.2-.9-.7-1.7-1.7-2.8-2.2-15-6.8-30.3-13-45.1-20.4-37.8-18.9-75.1-38.6-113-57.4-10.5-5.2-13.2-14.9-17.1-24.2,0-.1.3-.4.7-1,1.7.7,3.6,1.3,5.3,2.1,6.9,3.5,13.7,7.2,20.6,10.7,52.5,26.9,105,53.7,157.6,80.6,1.2.6,2.6.9,4.9,1.7-2-7.1-3.9-13.2-5.4-19.3-1.1-4.7-3.6-8.2-7.5-10.7-2-1.3-3.9-2.7-6-3.9-22.4-13.6-44.9-27.2-67.3-40.8-9.6-5.8-19.3-11.5-29.4-17.6-1.3-.4-2.7-.4-3.8-1.1-5.1-3.5-10.1-7.1-15.3-11M707.5,668.3c15.5-11.8,24.4-27.2,25.1-46.9.4-11.8-2-23.1-7.2-33.7-2.7-5.4-4.1-6-8.4-2-15.9,14.7-23.3,32.9-21.2,54.4.7,6.9,2.7,13.7,4.7,20.4,1,3.5.5,5.6-2.3,7.7-3.4,2.5-6.5,5.5-9.8,8.2-1.7,1.4-3.5,2.5-5.3,3.7-.5-1.7-.1-2.9,0-4,1-7,3-14.1,2.7-21-.2-7.1-2.3-14.3-4.1-21.2-1.2-4.7-3.9-5-7.3-1.6-1.1,1.2-2.3,2.3-3.6,3.3-7.6,6-13.3,13.6-17,22.5-6,14.5-6.9,29.3-2.7,44.4.7,2.4,1,4.5-1.3,6.4-20.8,17.4-41.6,34.8-62.4,52.2-.8.7-1.7,1.1-2.6,1.6-.3-1.5,0-2.6.4-3.5,3.7-7.7,7.3-15.3,11.2-22.9,1.2-2.4,3-4.7,5-6.4,24.3-20.2,36.2-46.6,38.8-77.6.1-1.6-.5-4.2-1.6-4.8-1.1-.6-3.3.6-5,1.2-.7.2-1.2.9-1.7,1.4-21.9,18.4-33.2,42.4-37.1,70.2-.7,5.1-1.8,9.8-4.2,14.5-17.3,34.9-34.3,70-51.4,105.1-10.8,22.1-21.6,44.3-32.3,66.4-1.2,2.5-3.2,5.9.2,7.6,3.2,1.6,4.1-2.4,5.2-4.5,4-8,7.9-16.2,11.8-24.3,16.2-33.3,32.3-66.6,48.7-99.7,1.8-3.7,4.6-7.2,7.7-9.9,22.2-18.9,44.6-37.5,66.9-56.1q4.3-3.6,7.8,1.1c10.1,13.8,24.8,18.9,40.5,14,5.8-1.8,6.9-5.2,2.8-9.7-8.9-9.7-19.6-15.7-33-16.4-.9,0-1.9-.3-2.8-.5-.2-.3-.4-.7-.6-1,15-12.7,29.9-25.4,45.3-38.4M345.6,689.9c-6.6-16.5-17-30.2-30.9-41.2-1.4-1.1-3.5-1.1-5.3-1.6-.5,1.7-1.4,3.5-1.3,5.1,2.7,31.3,15.1,57.7,39.7,77.9,1.3,1.1,2.5,2.5,3.2,4,4.4,8.8,8.8,17.7,13.1,26.6.4.8.5,1.8,1,3.7-1.6-1.1-2.5-1.5-3.2-2.1-20.6-17.4-41.2-34.8-62-52.1-3.1-2.6-3.6-5-2.5-8.8,4.8-17.5,2.4-34.1-6.1-50-4.6-8.7-12.4-14.2-19.3-20.7-.6-.6-2.9-.2-3.8.5-1.1.8-1.7,2.4-2.1,3.8-4.5,14.1-5.2,28.2-.3,42.3.4,1.1.7,2.3,1,3.4-.3.2-.5.4-.8.5-3.7-3-7.5-6-11.1-9.1-10.1-8.8-8.5-4.7-5-17.1,7.1-25.4,2.6-48.3-16.5-67.4-6.5-6.5-7.5-6.3-11.2,2.1-9,20.8-9.1,41.2,2.5,61.1,5.1,8.8,13.2,14.9,20.8,21.4,12.6,10.7,25.2,21.3,37.8,31.9,1,.8,1.8,1.8,3,3.1-5.2,1-9.8,1.6-14.2,2.9-9,2.5-16.4,7.8-22.6,14.8-3.5,3.9-2.6,7.1,2.2,9,2.2.8,4.5,1.6,6.8,1.9,15.4,2.1,27-4.1,35.6-16.5,2-2.8,3.3-3.2,6.1-.9,19.8,16.8,39.8,33.4,59.7,50.1,6.4,5.4,13.2,10.3,17,18.6,10.3,22.5,21.4,44.6,32.2,66.9,9.1,18.8,18.3,37.5,27.6,56.2,1,1.9,2,4.9,4.8,3.5,2.6-1.3,1.6-4.1.6-6.3-.2-.5-.5-.9-.7-1.3-3.2-6.5-6.4-13-9.6-19.5-25.5-52.2-51.1-104.4-76.6-156.6-.6-1.2-.8-2.6-.9-4-.9-12.3-4.1-24.1-8.9-36.1M443.2,536.8c1,1.4,1.8,3.4,3.1,4.2,10.1,5.8,20.2,11.4,30.4,16.9,2.6,1.4,4.9,2.6,4.6,7,1.8-2.3,2.8-3.8,4-5.3,2.8-3.5,5.3-7.4,8.7-10.3,3.8-3.2,4.4-6.2,2.6-10.7-3.4-8.8-4.6-17.9-2.5-27.2,1.1-4.7,3.6-8.4,7.6-11.2,6.6-4.6,14.1-1.7,15.9,6.1.3,1.1.7,2.1,1.1,3.2,1.6-1.5,2.6-2.9,2.7-4.4.4-5.8,1.1-11.7.4-17.4-1-8.2-6.2-11.9-14.4-12-1.3,0-2.6-1.2-3.8-2-1.4-.9-2.7-2.5-4.2-2.6-2.9-.3-6,.2-9,.3-6.9.2-13.3,2.4-17.8,7.5-6,6.8-11.8,13.9-16.6,21.5-6.8,10.9-9.7,23.5-12.9,36.4M388.5,603.8c-17.6-4.3-35.1-8.6-53.5-13,.8,1.9,1.2,3.1,1.7,4.1,7.6,13,17.5,23.6,31,30.6,14.8,7.6,29.6,7.7,44.6.5,6.7-3.3,13.5-6.4,20.3-9.6.9-.4,1.7-1.2,3.4-2.6-16.4-3.4-31.7-6.6-47.6-10M595.3,616.9c8.1-7.7,15.5-15.8,19.9-27.2-1.9.2-2.7.2-3.5.4-21.1,5.6-42.2,11.4-63.3,16.9-8.6,2.2-17.3,4-25.9,6.1-1.5.3-2.8,1.2-5.1,2.1,1.8,1.2,2.7,2,3.8,2.5,6.6,3.2,13.1,6.8,20,9.3,5.4,2,11.3,3.4,17,3.8,14.1,1,25.9-5.1,37-14M399.1,645.6c10.8,6.5,22.7,9.8,35.1,10.8,1.2,0,3-1.3,3.6-2.4,5.8-11.1,11.4-22.2,17-33.4.5-1,.7-2.2,1.1-3.3-.3-.3-.6-.5-.9-.8-1.7,1-3.5,1.9-5.2,3-15.1,10.1-30.2,20.1-48.6,23.3-.9.2-1.6,1.5-2.2,2.8M543.8,642c-3.5-1.2-7.3-1.9-10.6-3.7-11.1-6.1-22.1-12.6-33.1-18.9-1.3-.8-2.8-1.3-4.8-2.3.2,1.6.1,2.1.4,2.5,5.8,11.3,11.5,22.7,17.4,34,.6,1.1,2.5,2.2,3.5,2,10.7-1.5,21.6-2.6,31.4-8,1.4-.8,2.6-1.9,3.8-2.9-.1-.4-.2-.8-.3-1.2-2.4-.5-4.7-.9-7.7-1.5M655.1,497.2c4.1-1.9,8.3-3.8,12.4-5.7.4-.2.8-.7.9-1.1.2-3,.4-6.1.5-9.2-3.1.3-5.7,1-8.2.8-4-.4-6.5,1.3-8.4,4.3-2,3.2-3.7,6.5-5.3,9.8-.4.8,0,1.9,0,2.8.9,0,1.8.1,2.6,0,1.7-.4,3.4-.9,5.6-1.6M689.1,473.3c-4.9,1.8-9.7,3.6-14.5,5.5-.8.3-2,.9-2.2,1.6-.7,2.8-1,5.8-1.5,8.7,9.1.3,17.8-6.3,19.7-14.5,0-.4-.7-1-1.5-1.3Z"/>
  <path class="st4" d="M249.8,963.5c-7.1,3.8-14.4,5.6-22.3,4.5-5.4-.7-10-3-13.9-6.8-4.7-4.6-4.5-8.7.9-12.4,10.2-7.1,20.5-13.9,30.7-20.8,2.2-1.5,4.3-3.2,6.7-4.1,1.6-.6,4.2-.7,5.5.1,9.8,6.3,13.5,14.9,6.9,25.8-3.5,5.8-8.4,10.2-14.5,13.7Z"/>
  <path class="st2" d="M624.7,982.1c8.6,14.1,8.2,36.7-.9,49-6.9,9.4-17.8,9.2-22.8-1.3-7.6-15.7-7.5-31.7,1.7-46.8,5.7-9.3,15-9.5,22-.8Z"/>
  <path class="st2" d="M838.4,620.4c-6.2-11-2.3-19.1,9.9-21.1,2.4-.4,5-.6,7.4-.4,13.6,1.2,25.9,5.2,35.1,16,1.4,1.7,2.5,3.8,3.2,5.8,2.3,6.7,0,11.8-6.4,14.8-6.2,2.9-12.6,2.7-19.1,1.6-11.8-2.1-22.6-6.3-30.2-16.7Z"/>
  <path class="st2" d="M881.6,537c5.9,8.7,4.1,15.6-5,20.1-13.4,6.6-35.9,3.7-47.1-6.1-9.1-7.8-7.7-18.2,3-23,14.6-6.6,38.3-2.3,49.1,9Z"/>
  <path class="st2" d="M356.2,266.7c.8-9.2,2.6-17.6,8.3-24.9,7.2-9.2,18.1-8.7,22.7,2,7,16,6.2,32.1-4.1,46.6-7.5,10.5-19.4,8.9-23.6-3.3-2.2-6.3-2.2-13.4-3.2-20.5Z"/>
  <path class="st5" d="M290.2,469.8c-.2-1.1-.3-2.1-.4-3.7.4-2,.6-3.4.9-4.8,1.7,1.1,3.5,2.2,5.5,3.6.8.6,1.3.9,1.8,1.1,4.5,2,5.5,6.5,7.7,10.7-1,1.1-2.4,2.4-3.4,2.2-6-1.3-11.9-3.2-17.9-4.4-9.2-1.9-16.1-6.9-21.9-14-.8-1-2.2-1.7-3.2-2.5-.4.3-.7.5-1.1.8.6,1.5.9,3.3,2,4.3,3.9,3.7,7.7,7.6,12.1,10.4,4.1,2.6,9.1,3.9,13.7,5.7,2.8,1.1,5.5,5.7,4.4,8.4-.3.6-1.8,1.3-2.5,1.1-6.6-1.9-12.9-4.5-18.2-9.1-1-.9-2.5-1.3-3.8-1.9-.3.4-.6.7-.8,1.1,1,1.3,1.9,2.7,3.2,3.8,5.4,4.7,11.5,8.2,18.7,9.6,2.3.4,4.7,1.6,6.6,3,6.2,4.3,12.9,7,20.3,7.5,4.1.3,5.6-1.9,4.7-5.9-.3-1.3-.8-2.6-1.3-3.9-.7-1.8-1.6-3.6-2.4-5.4.3-.2.5-.5.8-.7,5.9,3.9,13.8,2.7,19,9,2.3,2.8,6.3,4.4,9.7,6.1,3.7,1.9,4.4,1.3,4.9-3,.9-.3,1.6-.6,2.3-.8,9.6,5.7,19.3,11.4,28.9,17.2,22.5,13.6,44.9,27.2,67.3,40.8,2,1.2,4,2.6,6,3.9,4,2.6,6.4,6.1,7.5,10.7,1.5,6.1,3.4,12.2,5.4,19.3-2.3-.8-3.6-1.1-4.9-1.7-52.5-26.8-105-53.7-157.6-80.6-6.9-3.5-13.7-7.2-20.6-10.7-1.7-.9-3.6-1.5-5.3-2.1-.4.6-.7.9-.7,1,3.9,9.3,6.6,18.9,17.1,24.2,37.8,18.8,75.2,38.5,113,57.4,14.7,7.4,30,13.6,45.1,20.4,1,.5,1.9,1.5,2.8,2.2-1,.8-2,2-3.1,2.2-2.3.3-4.8.4-7-.1-14.4-3.1-28.8-6.4-43.1-9.8-12-2.9-24-6-36-8.9-5.5-1.3-11.1-2-16.4-3.7-9.1-3-18.4-5.8-26.9-10.1-5.1-2.6-8.9-7.8-13.2-12-1.1-1.1-2-2.4-3.6-4.3,0,1.6-.2,2.4,0,2.9,9.2,18.7,17.5,38,28.1,55.9,10.1,16.9,26.4,27.3,45,33.8,3.3,1.2,5.5,3,7.7,5.9,2.7,3.6,6.6,7.3,10.7,8.9,9,3.6,18.4,6.1,27.8,8.7,3.6,1,4,1.3,2.3,4.7-10.1,20-20.1,40-30.3,59.9-1.8,3.6-1.8,6.8.1,10.3,1.6,2.9,3,5.9,4.9,9.6,1.2-1.8,2-2.7,2.5-3.7,13.3-27.5,26.4-55,39.7-82.4,7.2-14.7,14.6-29.3,21.8-44,1.9-3.8,3.2-7.9,5-11.7.5-1.1,1.7-2,2.5-2.9.9,1,2,1.8,2.6,2.9,21.2,42.5,42.3,85,63.4,127.6,1.9,3.8,3.8,7.5,5.8,11.3,6-4.6,8.4-14.8,5.4-20.8-9.3-18.7-18.7-37.3-28-56-2.4-4.7-2.1-5,3.2-5.3,13.2-.7,26-3.8,35-13.9,6.1-6.9,13.5-10.2,21.3-13.9,14.7-6.9,26.3-17.2,33.5-31.9,7.6-15.4,15.1-30.8,22.6-46.1.5-1,.9-2.2.6-3.7-.7.5-1.6,1-2.2,1.6-8.9,10-21,14.2-33.4,17.5-24.5,6.5-49.1,12.7-73.8,18.6-9.9,2.4-20.1,4-30.1,5.6-1.8.3-3.8-1.1-5.7-1.7,1.4-1.2,2.7-2.9,4.4-3.5,39.6-16,76.7-37,114.8-56.1,14.1-7,28-14.5,42-21.6,3.8-1.9,6.5-4.4,8.2-8.3,1.8-4.2,3.9-8.2,5.4-12.9-31.6,14-61.9,30.1-92.4,45.7-30.5,15.6-61.1,31.2-92.2,47,.3-1.3.4-2.3.8-3.2,4.2-8.7,8.2-17.4,12.8-25.9,1.5-2.7,3.8-5.4,6.4-7,18.7-11.5,37.6-22.8,56.5-34.1,47.6-28.5,95.2-57,142.7-85.5,1-.6,2.2-1.1,4.5-2.4-.4,3.1-.2,5.3-1,7.1-3.5,7.5-6.9,15-11.1,22.1-2.1,3.5-5.5,6.5-9.1,8.6-4.2,2.4-9.1,3.6-13.7,5.3-.4-.4-.8-.8-1.3-1.2,2.4-7.4,4.8-14.9,7.2-22.3-.1-.2-.2-.4-.3-.5-1.4,1.5-3.5,2.7-4.1,4.5-1.8,5.8-3.3,11.7-4.4,17.7-.4,2.3-1.1,3.3-3.4,3.4-3,.2-5.9.7-8.9.9-2.3.2-3-1-2-3,2.2-4.1,4.4-8.1,6.8-12.4,0-.3-.1-.4-.3-.4-3.5,1-6.3,3.1-6.9,6.6-1.7,10-8.6,14.3-17.5,16.5-1,.2-1.9.6-3.4,1.2-.5-2.3-1-4.4-1.5-6.6-.3-.1-.6-.3-.9-.4-.6,1.1-1.6,2.2-1.7,3.4-.7,7.9-7.3,10.7-12.7,14.5-.3.2-2.2-.9-2.4-1.7-.4-1.5-.1-3.2-.1-4.9-3.7,1.1-4.6,5.4-2.5,11.3,5.8-1.2,10.6-4.3,14.8-8.1,2.9-2.6,5.7-4.4,9.6-5,3.1-.4,6.1-1.8,9.6-2.9-1.3,3.2-2.6,5.8-3.5,8.5-1.9,5.5.3,8.1,5.9,7,7.2-1.5,14.2-3.4,19.8-8.9,1.4-1.4,4.1-1.4,6.2-2.1,2.5-.8,5-1.5,7.9-2.4-.1.9,0,1.5-.3,1.9-15.5,31.8-31,63.6-46.5,95.3-13.5,27.5-27.1,54.9-40.5,82.4-18.6,38.2-37.1,76.5-55.7,114.7-20,41-40,82-59.9,123-1.3,2.7-3,4.4-6.2,4.4-3.4,0-5.2-1.7-6.5-4.6-15.2-31.4-30.5-62.7-45.7-94-28.1-57.5-56.2-114.9-84.2-172.5-22.8-47-45.5-94-68.3-141-9-18.5-18.3-37-27.3-55.5-1.1-2.2-1.7-4.7-1.8-7.1,0-3.1,2.1-4.1,4.9-2.8.7.3,1.3.8,1.9,1.2,10.4,6.6,20.9,13.2,31.3,19.9,2,1.3,3.7,3.3,5.6,5.4.4,1,.7,1.4,1,1.9.9,3.1,1.7,6.3,2.7,9.9.9.9,1.6,1.2,2.4,1.5,0-1.1-.1-2.1-.2-3.2Z"/>
  <path class="st1" d="M707.3,668.5c-15.2,12.9-30.1,25.6-45.1,38.3.2.3.4.7.6,1,.9.2,1.9.5,2.8.5,13.4.8,24.1,6.7,33,16.4,4,4.4,2.9,7.9-2.8,9.7-15.8,4.9-30.4-.2-40.5-14q-3.5-4.7-7.8-1.1c-22.3,18.7-44.7,37.3-66.9,56.1-3.1,2.7-5.9,6.2-7.7,9.9-16.4,33.2-32.5,66.5-48.7,99.7-3.9,8.1-7.8,16.2-11.8,24.3-1.1,2.2-1.9,6.1-5.2,4.5-3.4-1.6-1.4-5.1-.2-7.6,10.7-22.2,21.5-44.3,32.3-66.4,17.1-35,34.1-70.1,51.4-105.1,2.3-4.7,3.5-9.4,4.2-14.5,3.9-27.8,15.2-51.9,37.1-70.2.6-.5,1.1-1.2,1.7-1.4,1.7-.6,3.8-1.8,5-1.2,1.1.6,1.7,3.2,1.6,4.8-2.6,31-14.5,57.4-38.8,77.6-2,1.7-3.8,4-5,6.4-3.9,7.5-7.5,15.2-11.2,22.9-.5.9-.7,2-.4,3.5.9-.5,1.8-1,2.6-1.6,20.8-17.4,41.6-34.8,62.4-52.2,2.3-1.9,1.9-4,1.3-6.4-4.2-15.1-3.2-30,2.7-44.4,3.7-8.9,9.3-16.5,17-22.5,1.3-1,2.5-2.1,3.6-3.3,3.3-3.4,6-3.1,7.3,1.6,1.9,7,3.9,14.1,4.1,21.2.2,7-1.7,14-2.7,21-.2,1.2-.5,2.3,0,4,1.8-1.2,3.6-2.4,5.3-3.7,3.3-2.7,6.4-5.7,9.8-8.2,2.9-2.1,3.4-4.2,2.3-7.7-2-6.7-4-13.5-4.7-20.4-2.1-21.6,5.3-39.8,21.2-54.4,4.3-4,5.8-3.4,8.4,2,5.2,10.7,7.7,21.9,7.2,33.7-.7,19.7-9.6,35.1-25.3,47.1M708.5,606.4c-8.2,16.5-9.1,33.5-3.3,50.9,1.1,3.2,2,3.4,4.6,1,18.4-17.4,19.8-45.6,12.1-63.1-1.4-3.1-2.6-3.4-4.8-.7-2.9,3.7-5.6,7.6-8.6,11.9M662.4,654.9c-7.8,13.1-9.3,27.2-6.7,42,.7,4.1,1.8,4.5,5,1.7,17.3-14.8,22.3-33.6,17.4-55.4-.8-3.7-2.1-4.2-4.7-1.5-3.8,4-7.2,8.5-11.1,13.3M619,700.5c7.9-12.9,13.4-26.7,14.8-42.4-14.4,7.1-36.1,49.4-32.3,61.9,4-1.4,9.8-7.8,17.5-19.5M659.9,716.9c9.6,11.5,24.4,16.5,32,10.8-4.9-8.2-22.6-15.7-31.1-13.1-.5.2-.8,1.2-.9,2.3Z"/>
  <path class="st1" d="M345.7,690.2c4.7,11.7,7.8,23.5,8.7,35.8.1,1.3.3,2.8.9,4,25.5,52.2,51,104.4,76.6,156.6,3.2,6.5,6.4,13,9.6,19.5.2.4.5.9.7,1.3,1,2.3,2,5-.6,6.3-2.8,1.4-3.8-1.5-4.8-3.5-9.2-18.7-18.4-37.4-27.6-56.2-10.8-22.2-21.9-44.4-32.2-66.9-3.8-8.2-10.5-13.1-17-18.6-19.9-16.7-39.9-33.3-59.7-50.1-2.8-2.4-4.1-2-6.1.9-8.6,12.4-20.3,18.6-35.6,16.5-2.3-.3-4.6-1.1-6.8-1.9-4.8-1.9-5.7-5-2.2-9,6.2-7,13.6-12.2,22.6-14.8,4.4-1.2,9-1.8,14.2-2.9-1.2-1.2-2-2.3-3-3.1-12.6-10.7-25.2-21.3-37.8-31.9-7.6-6.5-15.6-12.5-20.8-21.4-11.6-19.9-11.5-40.4-2.5-61.1,3.7-8.4,4.7-8.6,11.2-2.1,19.1,19.1,23.6,41.9,16.5,67.4-3.5,12.4-5.1,8.4,5,17.1,3.6,3.2,7.4,6.1,11.1,9.1.3-.2.5-.4.8-.5-.3-1.1-.6-2.3-1-3.4-5-14.1-4.2-28.2.3-42.3.4-1.4,1.1-3,2.1-3.8.9-.7,3.2-1.1,3.8-.5,6.8,6.5,14.6,12,19.3,20.7,8.5,16,10.9,32.6,6.1,50-1,3.8-.6,6.2,2.5,8.8,20.7,17.3,41.3,34.7,62,52.1.7.6,1.5,1,3.2,2.1-.5-1.9-.6-2.8-1-3.7-4.3-8.9-8.6-17.7-13.1-26.6-.8-1.5-1.9-2.9-3.2-4-24.5-20.2-37-46.6-39.7-77.9-.1-1.7.8-3.4,1.3-5.1,1.8.5,4,.5,5.3,1.6,13.9,11,24.3,24.7,31,41.5M245.1,619.7c-2-9.1-6.3-17-12.5-24-3.6-4.1-4.4-4.1-6.5.8-8.5,20.3-3.4,46,12.2,61.5,3,3,3.9,2.8,5.2-1.2,3.8-12,5.1-24.2,1.5-37.1M276.4,686.4c4,4.2,7.9,8.6,12.1,12.7,1.9,1.9,3.5,1.4,4.1-1.5,3.9-21.2-.5-39.9-16.4-55.2-3.7-3.5-5-3.2-6.1,1.6-3.4,14.8-1.3,28.8,6.4,42.4M314.9,659.5c3.6,24.2,13.8,45,32.3,61.3.6-1.1.7-1.9.6-2.8-1.8-12-5.5-23.3-11-34-4.4-8.6-10.3-16.2-17.1-23.1-1.1-1.1-3.1-1.4-4.7-1.5M265.7,729.9c10.2-.9,18-5.6,23.4-14.5-9.1-3.5-28.7,4.3-32.9,13.3,3.1.4,5.9.8,9.4,1.2Z"/>
  <path class="st5" d="M443.2,536.5c3.1-12.7,6-25.2,12.9-36.1,4.8-7.7,10.6-14.7,16.6-21.5,4.5-5.2,10.9-7.4,17.8-7.5,3,0,6-.6,9-.3,1.5.2,2.8,1.8,4.2,2.6,1.2.7,2.5,1.9,3.8,2,8.3.2,13.4,3.8,14.4,12,.7,5.7,0,11.6-.4,17.4,0,1.5-1.2,2.9-2.7,4.4-.4-1.1-.9-2.1-1.1-3.2-1.9-7.8-9.3-10.6-15.9-6.1-4,2.8-6.5,6.4-7.6,11.2-2.1,9.3-.9,18.4,2.5,27.2,1.8,4.5,1.2,7.5-2.6,10.7-3.4,2.8-5.8,6.8-8.7,10.3-1.2,1.4-2.2,2.9-4,5.3.3-4.4-2.1-5.6-4.6-7-10.2-5.5-20.4-11.1-30.4-16.9-1.4-.8-2.1-2.7-3.1-4.5M490.8,480.9c-1.9,0-3.8-.2-5.5.4-1,.4-2.5,2.3-2.3,3,.7,2.2,1.7,4.9,3.4,5.8,1.7,1,5.2.9,6.7-.3,1.7-1.3,2.5-4.3,3-6.7,0-.4-3-1.5-5.3-2.3Z"/>
  <path class="st8" d="M388.8,603.9c15.6,3.3,30.9,6.5,47.3,9.9-1.8,1.4-2.5,2.1-3.4,2.6-6.7,3.2-13.5,6.4-20.3,9.6-15,7.2-29.8,7.1-44.6-.5-13.6-7-23.4-17.6-31-30.6-.6-1-.9-2.2-1.7-4.1,18.4,4.5,36,8.8,53.8,13.1Z"/>
  <path class="st8" d="M595.1,617.1c-10.9,8.8-22.7,14.8-36.8,13.8-5.8-.4-11.6-1.8-17-3.8-6.9-2.5-13.4-6.1-20-9.3-1-.5-1.9-1.3-3.8-2.5,2.3-1,3.6-1.8,5.1-2.1,8.6-2.1,17.3-3.8,25.9-6.1,21.1-5.5,42.2-11.3,63.3-16.9.8-.2,1.6-.2,3.5-.4-4.4,11.4-11.8,19.5-20.1,27.3Z"/>
  <path class="st8" d="M399,645.4c.7-1,1.4-2.4,2.3-2.5,18.4-3.2,33.5-13.3,48.6-23.3,1.7-1.1,3.5-2,5.2-3,.3.3.6.5.9.8-.4,1.1-.6,2.3-1.1,3.3-5.6,11.2-11.2,22.3-17,33.4-.6,1.2-2.4,2.5-3.6,2.4-12.5-1-24.3-4.3-35.3-11Z"/>
  <path class="st8" d="M544.1,642.1c2.7.5,5,1,7.4,1.4.1.4.2.8.3,1.2-1.3,1-2.4,2.2-3.8,2.9-9.8,5.3-20.6,6.5-31.4,8-1.1.2-3-1-3.5-2-5.9-11.3-11.7-22.6-17.4-34-.2-.4-.1-1-.4-2.5,2,.9,3.5,1.5,4.8,2.3,11,6.3,22,12.8,33.1,18.9,3.2,1.8,7,2.5,10.9,3.8Z"/>
  <path class="st0" d="M348.9,498.9c-.3,4.2-1,4.7-4.7,2.9-3.4-1.7-7.4-3.3-9.7-6.1-5.2-6.2-13.1-5.1-19-9-.3.2-.5.5-.8.7.8,1.8,1.7,3.6,2.4,5.4.5,1.3,1,2.6,1.3,3.9,1,4-.6,6.1-4.7,5.9-7.5-.5-14.2-3.3-20.3-7.5-2-1.4-4.3-2.6-6.6-3-7.2-1.3-13.3-4.9-18.7-9.6-1.2-1.1-2.1-2.5-3.2-3.8.3-.4.6-.7.8-1.1,1.3.6,2.8,1,3.8,1.9,5.3,4.6,11.6,7.2,18.2,9.1.7.2,2.3-.5,2.5-1.1,1.1-2.7-1.5-7.3-4.4-8.4-4.6-1.8-9.6-3.1-13.7-5.7-4.5-2.8-8.3-6.7-12.1-10.4-1.1-1-1.3-2.8-2-4.3.4-.3.7-.5,1.1-.8,1.1.8,2.4,1.5,3.2,2.5,5.8,7.1,12.7,12.1,21.9,14,6,1.2,11.9,3.1,17.9,4.4,1,.2,2.4-1.1,3.5-2,.4-.3.8-.3,1.7-.1,1.2,1.3,1.7,2.9,2.8,3.4,5.5,2.7,11.1,5.2,17,7.9.4-1.9.6-3,.8-4,1.3.5,2.7,1,3.8,1.8-2.1,1-2.6,1.9-.7,3.3,2.1,1.6,3.9,3.5,6,5,3.5,2.6,6.9,5.4,11.7,4.8M308.6,497.6c2.3.6,4.6,1.2,7.4,1.9-1.5-2.9-2.8-5.2-3.8-7.6-2.5-6.2-5.8-11-13.5-10.4-2.1.2-4.3-.4-6.4-.6.1,2.2.3,4.4.3,6.5,0,2.5.9,4.3,3.4,5.2,4.1,1.5,8.1,3.1,12.6,4.9Z"/>
  <path class="st9" d="M654.8,497.3c-1.9.6-3.6,1.1-5.3,1.4-.8.2-1.7,0-2.6,0,0-1-.3-2.1,0-2.8,1.6-3.3,3.4-6.7,5.3-9.8,1.9-3,4.4-4.8,8.4-4.3,2.5.3,5.1-.4,8.2-.8-.2,3.2-.3,6.2-.5,9.2,0,.4-.5,1-.9,1.1-4.1,1.9-8.3,3.8-12.7,5.9Z"/>
  <path class="st1" d="M689.3,473.2c.6.4,1.4,1,1.3,1.4-1.9,8.2-10.6,14.8-19.7,14.5.5-3,.8-5.9,1.5-8.7.2-.7,1.3-1.3,2.2-1.6,4.8-1.9,9.7-3.7,14.8-5.6Z"/>
  <path class="st1" d="M327.9,483.8c0,1.3-.3,2.4-.6,4.2-5.9-2.7-11.5-5.1-17-7.9-1.1-.5-1.6-2.1-2.4-3.4-.5-2-.8-3.8-1.4-6.7,7.7,4.9,14.5,9.2,21.5,13.8Z"/>
  <path class="st1" d="M349.2,498.8c-5.1.7-8.5-2.1-12-4.7-2.1-1.6-3.9-3.4-6-5-1.9-1.5-1.4-2.4.8-3.2,5.3,3.5,10.2,7.1,15.3,10.6,1,.7,2.5.8,4,1.3-.5.4-1.2.7-2.1,1Z"/>
  <path class="st1" d="M290.5,461.1c-.1,1.6-.4,3-.7,4.6-.5-1-1.1-2.3-1.2-3.5,0-.3,1.2-.8,2-1.1Z"/>
  <path class="st1" d="M290,470c.2.8.3,1.8.3,2.9-.8-.3-1.5-.6-2.3-1.2.6-.6,1.2-1,2-1.7Z"/>
  <path class="st1" d="M285.3,461.3c-.3-.3-.6-.8-.9-1.5.3.3.6.8.9,1.5Z"/>
  <path class="st1" d="M297.8,465.8c-.4,0-.9-.3-1.5-.7.4,0,.9.3,1.5.7Z"/>
  <path class="st3" d="M662.9,462.9c.1,0,.3,0,.3,0-.1,0-.2,0-.3,0Z"/>
  <path class="st4" d="M708.6,606.2c2.9-4.1,5.5-8,8.5-11.7,2.2-2.7,3.4-2.4,4.8.7,7.7,17.4,6.3,45.7-12.1,63.1-2.6,2.5-3.5,2.3-4.6-1-5.8-17.4-4.9-34.4,3.5-51.1Z"/>
  <path class="st4" d="M662.6,654.6c3.7-4.5,7.1-9,11-13,2.5-2.7,3.9-2.1,4.7,1.5,4.9,21.8,0,40.6-17.4,55.4-3.2,2.8-4.3,2.4-5-1.7-2.6-14.8-1.1-28.9,6.8-42.2Z"/>
  <path class="st7" d="M618.8,700.8c-7.5,11.5-13.4,17.9-17.3,19.3-3.8-12.5,17.8-54.8,32.3-61.9-1.4,15.7-6.9,29.5-14.9,42.6Z"/>
  <path class="st7" d="M659.8,716.6c.2-.9.5-1.9,1-2.1,8.5-2.6,26.2,4.9,31.1,13.1-7.6,5.7-22.4.8-32.1-11Z"/>
  <path class="st4" d="M245.1,620c3.5,12.7,2.2,24.8-1.6,36.8-1.3,4.1-2.1,4.3-5.2,1.2-15.6-15.6-20.7-41.2-12.2-61.5,2-4.9,2.8-4.9,6.5-.8,6.2,7,10.5,14.9,12.5,24.3Z"/>
  <path class="st4" d="M276.3,686.1c-7.6-13.4-9.7-27.4-6.3-42.2,1.1-4.8,2.5-5.1,6.1-1.6,16,15.3,20.3,34,16.4,55.2-.5,2.9-2.2,3.4-4.1,1.5-4.2-4.1-8.1-8.4-12.2-12.9Z"/>
  <path class="st7" d="M314.9,659.3c1.6.4,3.6.7,4.7,1.8,6.8,6.8,12.7,14.4,17.1,23.1,5.5,10.7,9.2,22.1,11,34,.1.8,0,1.7-.6,2.8-18.5-16.3-28.7-37.1-32.2-61.6Z"/>
  <path class="st7" d="M265.4,729.9c-3.2-.4-6-.8-9.1-1.2,4.2-9,23.8-16.8,32.9-13.3-5.5,8.9-13.3,13.6-23.8,14.5Z"/>
  <path class="st7" d="M491.1,480.9c2,.8,5,1.9,5,2.3-.6,2.4-1.3,5.3-3,6.7-1.5,1.2-4.9,1.2-6.7.3-1.7-.9-2.7-3.7-3.4-5.8-.2-.7,1.2-2.6,2.3-3,1.7-.6,3.7-.3,5.9-.4Z"/>
  <path class="st6" d="M308.3,497.5c-4.3-1.7-8.3-3.3-12.4-4.8-2.5-.9-3.4-2.7-3.4-5.2,0-2.2-.2-4.4-.3-6.5,2.1.2,4.3.8,6.4.6,7.8-.6,11.1,4.2,13.5,10.4.9,2.4,2.3,4.6,3.8,7.6-2.9-.7-5.2-1.3-7.7-2Z"/>
</svg>